<svg width="45" height="613" viewBox="0 0 45 613" fill="none" xmlns="http://www.w3.org/2000/svg">
<circle cx="22.8929" cy="400.893" r="21.8929" fill="#8ED974"/>
<path d="M22.8169 43.7856L22.8169 189.745" stroke="#8ED974" stroke-width="2"/>
<path d="M22.8169 233.524L22.8169 379.484" stroke="#8ED974" stroke-width="2"/>
<circle cx="22.8167" cy="591.107" r="20.8929" stroke="#8ED974" stroke-width="2"/>
<path d="M23.9352 593.893L19.4802 593.897C19.2102 593.897 18.995 593.827 18.8346 593.687C18.6741 593.547 18.5936 593.373 18.593 593.163C18.5923 592.953 18.6717 592.752 18.8311 592.562L24.4805 585.778C24.7197 585.508 24.9692 585.373 25.2292 585.372C25.4392 585.372 25.6345 585.447 25.8149 585.597C26.1157 585.837 26.2663 586.062 26.267 586.272C26.2674 586.392 26.2128 586.532 26.1033 586.692L25.924 586.932L25.9404 592.302L27.2754 592.301L27.2802 593.891L25.9452 593.892L25.9516 596.007L23.9416 596.008L23.9352 593.893ZM24.0354 592.303L24.0249 588.868L21.1704 592.306L24.0354 592.303Z" fill="#394241"/>
<path d="M23.2186 410.228C21.5026 410.23 20.0641 409.842 18.903 409.066C17.742 408.289 16.9172 407.139 16.4285 405.614L19.1318 404.732C19.4138 405.817 19.8929 406.608 20.5691 407.107C21.2599 407.59 22.1406 407.831 23.2113 407.83C25.4993 407.829 26.6403 406.86 26.6344 404.924C26.6319 404.088 26.4173 403.457 25.9907 403.032C25.564 402.593 24.9767 402.373 24.2287 402.374C23.9207 402.374 23.6201 402.418 23.3271 402.506L23.0203 402.903C22.7573 403.24 22.4938 403.409 22.2298 403.409C21.9658 403.409 21.584 403.241 21.0843 402.904C20.7756 402.684 20.6209 402.464 20.6203 402.244C20.6196 402.039 20.7288 401.76 20.9477 401.408L23.8601 396.94L20.2961 396.943L19.642 398.879L17.3716 397.429L18.331 394.612L27.549 394.605C27.9597 394.605 28.2678 394.663 28.4735 394.78C28.6792 394.883 28.7824 395.073 28.7833 395.352C28.7838 395.513 28.7404 395.726 28.6532 395.99C28.5224 396.372 28.3618 396.628 28.1716 396.761C27.9813 396.878 27.6881 396.937 27.2921 396.937L26.8521 396.938L24.6403 400.283C24.948 400.18 25.3145 400.129 25.7398 400.128C26.4438 400.128 27.0897 400.311 27.6775 400.677C28.2653 401.043 28.7363 401.593 29.0905 402.326C29.4447 403.044 29.6233 403.909 29.6264 404.921C29.6296 405.977 29.3758 406.909 28.8649 407.716C28.3687 408.508 27.6372 409.125 26.6706 409.566C25.7039 410.006 24.5532 410.227 23.2186 410.228Z" fill="white"/>
<path d="M22.8167 423.261L22.8167 569.221" stroke="#8ED974" stroke-width="2"/>
<circle cx="22.8929" cy="21.8929" r="21.8929" fill="#8ED974"/>
<path d="M32.1266 13.1379C31.2241 12.6428 30.2175 13.5976 29.6274 14.1635C28.2737 15.5074 27.1282 17.0635 25.8438 18.4781C24.4206 20.0342 23.1016 21.5903 21.6437 23.111C20.8106 23.9598 19.9081 24.8793 19.3528 25.9403C18.1031 24.7024 17.0271 23.3585 15.6386 22.2623C14.632 21.4842 12.9658 20.9184 13.0005 22.7927C13.07 25.233 15.1874 27.8501 16.7494 29.5122C17.4089 30.2195 18.2767 30.9622 19.2833 30.9976C20.4982 31.0683 21.7478 29.5829 22.4768 28.7695C23.7612 27.3549 24.8025 25.7634 25.9827 24.3135C27.51 22.4037 29.072 20.5293 30.5646 18.5842C31.5018 17.3817 34.4523 14.411 32.1266 13.1379ZM14.5278 22.6513C14.4931 22.6513 14.4584 22.6513 14.3889 22.6866C14.2501 22.6513 14.146 22.6159 14.0071 22.5451C14.1112 22.4744 14.2848 22.5098 14.5278 22.6513Z" fill="white"/>
<circle cx="22.8929" cy="211.893" r="21.8929" fill="#8ED974"/>
<path d="M32.1266 203.138C31.2241 202.643 30.2175 203.598 29.6274 204.163C28.2737 205.507 27.1282 207.063 25.8438 208.478C24.4206 210.034 23.1016 211.59 21.6437 213.111C20.8106 213.96 19.9081 214.879 19.3528 215.94C18.1031 214.702 17.0271 213.359 15.6386 212.262C14.632 211.484 12.9658 210.918 13.0005 212.793C13.07 215.233 15.1874 217.85 16.7494 219.512C17.4089 220.22 18.2767 220.962 19.2833 220.998C20.4982 221.068 21.7478 219.583 22.4768 218.77C23.7612 217.355 24.8025 215.763 25.9827 214.313C27.51 212.404 29.072 210.529 30.5646 208.584C31.5018 207.382 34.4523 204.411 32.1266 203.138ZM14.5278 212.651C14.4931 212.651 14.4584 212.651 14.3889 212.687C14.2501 212.651 14.146 212.616 14.0071 212.545C14.1112 212.474 14.2848 212.51 14.5278 212.651Z" fill="white"/>
</svg>
