<svg width="63" height="63" viewBox="0 0 63 63" fill="none" xmlns="http://www.w3.org/2000/svg">
<path d="M0 22C0 9.84973 9.84974 0 22 0H63V41C63 53.1503 53.1503 63 41 63H0V22Z" fill="white"/>
<path d="M45.1413 5C23.4823 5 5.92395 23.7607 5.92395 46.909V25.8357C5.92395 14.3283 14.6532 5 25.4235 5H45.1413Z" fill="#7BC868"/>
<path d="M54.5243 7.53601L8.29712 56.936V49.4434C8.29712 26.2972 25.8559 7.53601 47.5129 7.53601H54.5243Z" fill="#8ED974"/>
<path d="M56.8974 17.563V38.6341C56.8974 50.1437 48.1682 59.472 37.3999 59.472H17.6801C39.3391 59.472 56.8974 40.7086 56.8974 17.563Z" fill="#4CA456"/>
<path d="M54.5243 7.53601V15.0286C54.5243 38.172 36.9655 56.936 15.3085 56.936H8.29712L54.5243 7.53601Z" fill="#5BB462"/>
</svg>
