<svg width="18" height="18" viewBox="0 0 18 18" fill="none" xmlns="http://www.w3.org/2000/svg">
<g clip-path="url(#clip0_333_60)">
<path d="M6.21606 5.65359C6.07201 5.65359 5.92795 5.70825 5.8185 5.81853C5.59877 6.03825 5.59877 6.39449 5.8185 6.61421L11.3865 12.183C11.6062 12.4028 11.9625 12.4028 12.1822 12.183C12.4021 11.9633 12.4021 11.6071 12.1822 11.3872L6.61418 5.81853C6.50404 5.70825 6.35999 5.65359 6.21606 5.65359Z" fill="#cccccc"/>
<path d="M11.7839 5.65358C11.64 5.65358 11.496 5.70824 11.3865 5.81852L5.8185 11.3865C5.59877 11.6063 5.59877 11.9625 5.8185 12.1822C6.03822 12.4021 6.39445 12.4021 6.61418 12.1822L12.1822 6.61351C12.4021 6.39379 12.4021 6.03756 12.1822 5.81783C12.0721 5.70824 11.928 5.65358 11.7839 5.65358Z" fill="#cccccc"/>
<path d="M15.9375 0H2.06255C0.924774 0 0 0.924774 0 2.06255V15.9375C0 17.0752 0.924774 18 2.06255 18H15.9375C17.0752 18 18 17.0752 18 15.9375V2.06255C18 0.924774 17.0752 0 15.9375 0ZM2.06255 16.875C1.54578 16.875 1.125 16.4542 1.125 15.9375V2.06255C1.125 1.54578 1.54578 1.125 2.06255 1.125H15.9375C16.4542 1.125 16.875 1.54578 16.875 2.06255V15.9375C16.875 16.4542 16.4542 16.875 15.9375 16.875H2.06255Z" fill="#DDDDDD"/>
</g>
<defs>
<clipPath id="clip0_333_60">
<rect width="18" height="18" fill="white" transform="matrix(1 0 0 -1 0 18)"/>
</clipPath>
</defs>
</svg>
