<svg width="27" height="26" viewBox="0 0 27 26" fill="none" xmlns="http://www.w3.org/2000/svg">
<path d="M23.629 10.175C23.3517 9.8189 22.9357 9.6146 22.4876 9.6146H18.4436L16.2506 4.47423C16.1147 4.15553 15.752 4.00988 15.4407 4.14914C15.1293 4.28832 14.9871 4.6596 15.1231 4.97835L17.1009 9.61464H9.78182L11.7597 4.97835C11.8956 4.6596 11.7535 4.28837 11.4421 4.14914C11.1308 4.00988 10.7681 4.15544 10.6321 4.47423L8.43922 9.61464H4.39516C3.94705 9.61464 3.53105 9.8189 3.25376 10.1751C2.98156 10.5247 2.88111 10.9742 2.97819 11.4084L5.13782 21.065C5.28863 21.7393 5.8713 22.2102 6.55478 22.2102H20.328C21.0115 22.2102 21.5941 21.7393 21.7449 21.065L23.9046 11.4084C24.0017 10.9742 23.9012 10.5247 23.629 10.175ZM20.328 20.9506H6.55478C6.45032 20.9506 6.35882 20.8805 6.33721 20.7838L4.17758 11.1273C4.16064 11.0515 4.18906 10.9945 4.21597 10.9601C4.24091 10.928 4.29738 10.8742 4.39516 10.8742H7.9019L7.74076 11.2519C7.6048 11.5707 7.74695 11.9419 8.05833 12.0811C8.13847 12.117 8.22197 12.134 8.3042 12.134C8.54134 12.134 8.76732 11.9928 8.8683 11.7561L9.24451 10.8743H17.6383L18.0146 11.7561C18.1155 11.9928 18.3415 12.134 18.5786 12.134C18.6608 12.134 18.7444 12.117 18.8245 12.0811C19.1359 11.942 19.2781 11.5707 19.1421 11.2519L18.9809 10.8742H22.4877C22.5855 10.8742 22.6419 10.928 22.6669 10.9601C22.6937 10.9946 22.7222 11.0516 22.7053 11.1273L20.5456 20.7839C20.524 20.8805 20.4324 20.9506 20.328 20.9506Z" fill="#7BC868"/>
<path d="M8.95918 13.6904C8.54663 13.6904 8.21216 14.027 8.21216 14.4422V19.9553C8.21216 20.3705 8.54663 20.7071 8.95918 20.7071C9.37174 20.7071 9.70621 20.3705 9.70621 19.9553V14.4422C9.70621 14.027 9.37179 13.6904 8.95918 13.6904Z" fill="#7BC868"/>
<path d="M13.4414 13.6904C13.0288 13.6904 12.6943 14.027 12.6943 14.4422V19.9553C12.6943 20.3705 13.0288 20.7071 13.4414 20.7071C13.8539 20.7071 14.1884 20.3705 14.1884 19.9553V14.4422C14.1884 14.027 13.8539 13.6904 13.4414 13.6904Z" fill="#7BC868"/>
<path d="M17.9235 13.6904C17.511 13.6904 17.1765 14.027 17.1765 14.4422V19.9553C17.1765 20.3705 17.511 20.7071 17.9235 20.7071C18.3361 20.7071 18.6706 20.3705 18.6706 19.9553V14.4422C18.6705 14.027 18.3361 13.6904 17.9235 13.6904Z" fill="#7BC868"/>
</svg>
