<svg width="15" height="14" viewBox="0 0 15 14" fill="none" xmlns="http://www.w3.org/2000/svg">
<path d="M13.8432 12.9517L9.92368 9.00716C10.6829 8.06337 11.14 6.8641 11.14 5.55792C11.14 2.53058 8.69241 0.0673218 5.68431 0.0673218C2.67622 0.0673218 0.228638 2.53056 0.228638 5.5579C0.228638 8.58523 2.67624 11.0485 5.68434 11.0485C6.98221 11.0485 8.17386 10.5885 9.11165 9.82438L13.0311 13.7689C13.1431 13.8816 13.2901 13.9383 13.4372 13.9383C13.5842 13.9383 13.7312 13.8816 13.8432 13.7689C14.0677 13.543 14.0677 13.1777 13.8432 12.9517ZM5.68434 9.89257C3.30909 9.89257 1.37721 7.94833 1.37721 5.5579C1.37721 3.16746 3.30909 1.22322 5.68434 1.22322C8.05959 1.22322 9.99147 3.16746 9.99147 5.5579C9.99147 7.94833 8.05956 9.89257 5.68434 9.89257Z" fill="#7BC868"/>
</svg>
