<svg width="39" height="39" viewBox="0 0 39 39" fill="none" xmlns="http://www.w3.org/2000/svg">
<path d="M32.5 6.8861V3.25C32.4977 1.456 31.044 0.002275 29.25 0H3.25C1.456 0.002275 0.002275 1.456 0 3.25V17.55C0.00503751 19.2099 1.26328 20.5982 2.9146 20.7665L5.35795 27.1091C6.0034 28.7838 7.88417 29.6181 9.55906 28.9734L24.817 23.0958C23.7627 25.8497 24.0627 28.939 25.6266 31.4387L26 32.0359V38.35C26 38.7091 26.2909 39 26.65 39H38.35C38.7091 39 39 38.7091 39 38.35V16.8943C38.9938 14.6465 38.0989 12.4927 36.5097 10.9029L32.5 6.8861ZM32.5 10.7734L34.4728 15.8945C34.8593 16.8997 34.3583 18.0276 33.3533 18.4145L32.2257 18.85C32.4058 18.4402 32.499 17.9972 32.5 17.55V10.7734ZM1.3 17.55V3.25C1.3 2.17327 2.17327 1.3 3.25 1.3H29.25C30.3267 1.3 31.2 2.17327 31.2 3.25V7.3814H31.1943L31.2 7.39619V17.55C31.195 17.6634 31.1802 17.7759 31.1558 17.8867L25.2018 11.932C23.8635 10.6246 21.7298 10.6145 20.3794 11.9083C19.0287 13.203 18.9477 15.335 20.1968 16.7276L22.7351 19.5H3.25C2.17327 19.5 1.3 18.6267 1.3 17.55ZM9.62715 20.8L5.005 22.5795L4.3212 20.8H9.62715ZM9.09155 27.76C8.08665 28.1474 6.95809 27.6465 6.57085 26.6416L5.4743 23.79L13.2333 20.8V20.7961H23.9265L24.7713 21.7171L9.09155 27.76ZM37.7 37.7H27.3V32.5H37.7V37.7ZM37.7 31.2H27.0107L26.7288 30.7495C25.1439 28.2168 25.0809 25.0179 26.5642 22.425C26.7046 22.1796 26.6702 21.8715 26.479 21.6632L21.1525 15.8522C20.3582 14.9828 20.4028 13.6388 21.2532 12.8245C22.1039 12.01 23.4486 12.0234 24.2825 12.8541L34.6404 23.2096L35.5596 22.2904L33.1545 19.8855L33.8214 19.6255C35.4949 18.9798 36.3288 17.1007 35.685 15.4263L33.4849 9.71344L35.5906 11.8235C36.9361 13.1687 37.6948 14.9916 37.7 16.8943V31.2Z" fill="black"/>
<path d="M7.4101 9.1001C8.3435 9.1001 9.1001 8.3435 9.1001 7.4101V4.2901C9.1001 3.3567 8.3435 2.6001 7.4101 2.6001H4.2901C3.3567 2.6001 2.6001 3.3567 2.6001 4.2901V7.4101C2.6001 8.3435 3.3567 9.1001 4.2901 9.1001H7.4101ZM3.9001 7.4101V6.5001H5.2001V5.2001H3.9001V4.2901C3.9001 4.07479 4.07479 3.9001 4.2901 3.9001H7.4101C7.62541 3.9001 7.8001 4.07479 7.8001 4.2901V5.2001H6.5001V6.5001H7.8001V7.4101C7.8001 7.62541 7.62541 7.8001 7.4101 7.8001H4.2901C4.07479 7.8001 3.9001 7.62541 3.9001 7.4101Z" fill="black"/>
<path d="M3.25 11.0498H5.85V12.3498H3.25V11.0498Z" fill="black"/>
<path d="M3.25 14.9502H5.85V16.2502H3.25V14.9502Z" fill="black"/>
<path d="M14.95 14.9502H17.55V16.2502H14.95V14.9502Z" fill="black"/>
<path d="M7.1499 11.0498H9.7499V12.3498H7.1499V11.0498Z" fill="black"/>
<path d="M11.05 11.0498H13.65V12.3498H11.05V11.0498Z" fill="black"/>
<path d="M14.95 11.0498H17.55V12.3498H14.95V11.0498Z" fill="black"/>
<path d="M27.3 3.25H28.6001V5.2H27.3V3.25Z" fill="black"/>
<path d="M24.7 3.25H26V5.2H24.7V3.25Z" fill="black"/>
<path d="M22.1001 3.25H23.4001V5.2H22.1001V3.25Z" fill="black"/>
<path d="M19.5 3.25H20.8V5.2H19.5V3.25Z" fill="black"/>
<path d="M28.6001 33.7998H29.9001V35.0998H28.6001V33.7998Z" fill="black"/>
</svg>
