<svg width="40" height="40" viewBox="0 0 40 40" fill="none" xmlns="http://www.w3.org/2000/svg">
<g clip-path="url(#clip0_341_822)">
<path d="M-812 -207C-812 -218.046 -803.046 -227 -792 -227H107C118.046 -227 127 -218.046 127 -207V310C127 321.046 118.046 330 107 330H-792C-803.046 330 -812 321.046 -812 310V-207Z" fill="#F7F7F7"/>
<path d="M13.3333 14.1706C13.3333 16.1674 14.5571 17.8421 16.2962 18.4862V9.85498C14.5571 10.4991 13.3333 12.1738 13.3333 14.1706Z" fill="#006AC9"/>
<path d="M19.5811 9.85498V18.4862C21.3202 17.8421 22.544 16.103 22.544 14.1706C22.544 12.1738 21.3202 10.4991 19.5811 9.85498Z" fill="#004A97"/>
<path d="M19.5811 18.4865C21.3202 17.8424 22.544 16.1033 22.544 14.1709L19.5811 18.4865Z" fill="#023563"/>
<path d="M21.7066 6.18408H17.9707C13.5263 6.18408 9.91919 9.46911 9.91919 14.2356C9.91919 18.6157 13.5263 22.1583 17.9707 22.1583H21.7066C26.0866 22.1583 30.0802 18.6157 30.0802 14.2356C30.0158 9.46911 26.0222 6.18408 21.7066 6.18408ZM17.9707 21.4498C13.9127 21.4498 10.6921 18.1648 10.6921 14.1712C10.6921 10.1132 13.9772 6.82821 17.9707 6.82821C22.0287 6.82821 25.3137 10.1132 25.3137 14.1712C25.2493 18.2292 21.9643 21.4498 17.9707 21.4498Z" fill="#023563"/>
<path d="M1.67472 27.6326C1.67472 28.2768 2.1256 28.3412 2.57649 28.3412C4.38003 28.3412 5.02416 26.9885 5.02416 25.7003C5.02416 24.09 3.99356 22.995 2.38325 22.995C2.06119 22.995 1.86796 22.995 1.73913 23.0594V27.6326H1.67472ZM0.837359 23.6391C0.837359 22.8661 0.450886 22.9305 0.0644122 22.9305V22.7373C0.386473 22.7373 0.708535 22.7373 1.0306 22.7373C1.41707 22.7373 1.86796 22.7373 2.51208 22.7373C4.70209 22.7373 5.86151 24.2188 5.86151 25.7003C5.86151 26.5376 5.34622 28.6632 2.38325 28.6632C1.93237 28.6632 1.54589 28.6632 1.15942 28.6632C0.772947 28.6632 0.386473 28.6632 0 28.6632V28.47C0.515298 28.4056 0.772947 28.4056 0.772947 27.8259V23.6391H0.837359Z" fill="#004A97"/>
<path d="M7.14957 23.4462C6.95634 23.4462 6.7631 23.253 6.7631 22.9954C6.7631 22.8021 6.95634 22.6089 7.14957 22.6089C7.34281 22.6089 7.53605 22.8021 7.53605 22.9954C7.53605 23.253 7.34281 23.4462 7.14957 23.4462ZM6.2478 28.406H6.44104C6.69869 28.406 6.82751 28.406 6.82751 28.1483V25.8295C6.82751 25.443 6.69869 25.3786 6.37663 25.2498V25.121C6.7631 24.9921 7.21399 24.8633 7.2784 24.7989C7.34281 24.7345 7.40722 24.7345 7.40722 24.7345C7.47163 24.7345 7.47163 24.7989 7.47163 24.8633V28.0839C7.47163 28.3416 7.66487 28.3416 7.92252 28.3416H8.05134V28.5348C7.7937 28.5348 7.47163 28.5348 7.14957 28.5348C6.82751 28.5348 6.56986 28.5348 6.2478 28.5348C6.2478 28.5348 6.2478 28.406 6.2478 28.406Z" fill="#004A97"/>
<path d="M8.82458 25.8938C8.82458 25.5718 8.76017 25.5074 8.30929 25.3141V25.1853C8.69576 25.0565 9.01782 24.9277 9.4043 24.7988C9.4043 24.7988 9.46871 24.7988 9.46871 24.8632V25.443C9.9196 25.1209 10.3705 24.7988 10.9502 24.7988C11.6587 24.7988 11.9164 25.3141 11.9164 25.9582V28.1483C11.9164 28.4059 12.1096 28.4059 12.3673 28.4059H12.4961V28.5992C12.174 28.5992 11.9164 28.5992 11.5943 28.5992C11.2723 28.5992 11.0146 28.5992 10.6925 28.5992V28.4059H10.8214C11.079 28.4059 11.2078 28.4059 11.2078 28.1483V25.9582C11.2078 25.5074 10.8858 25.2497 10.4349 25.2497C10.1772 25.2497 9.72636 25.443 9.46871 25.6362V28.1483C9.46871 28.4059 9.66195 28.4059 9.9196 28.4059H10.0484V28.5992C9.72636 28.5992 9.46871 28.5992 9.14665 28.5992C8.82458 28.5992 8.56694 28.5992 8.24487 28.5992V28.4059H8.43811C8.69576 28.4059 8.82458 28.4059 8.82458 28.1483V25.8938Z" fill="#004A97"/>
<path d="M14.6212 26.0227C14.8144 26.0227 14.8789 25.8938 14.8789 25.8294C14.8789 25.3785 14.6212 25.0565 14.1703 25.0565C13.655 25.0565 13.2686 25.443 13.2041 26.0227H14.6212ZM13.1397 26.2803C13.1397 26.3447 13.1397 26.4735 13.1397 26.7956C13.2041 27.5686 13.7194 28.2771 14.3636 28.2771C14.8144 28.2771 15.2009 28.0194 15.523 27.6974L15.6518 27.8262C15.2653 28.3415 14.75 28.7924 14.1059 28.7924C12.7533 28.7924 12.4956 27.5041 12.4956 26.9244C12.4956 25.2497 13.5906 24.7988 14.1703 24.7988C14.8789 24.7988 15.5874 25.2497 15.5874 26.1515C15.5874 26.2159 15.5874 26.2803 15.5874 26.2803H15.523H13.1397Z" fill="#004A97"/>
<path d="M15.7812 28.4059H16.0388C16.2965 28.4059 16.4253 28.4059 16.4253 28.1483V25.765C16.4253 25.5074 16.1032 25.443 15.9744 25.3785V25.2497C16.6185 24.9921 16.9406 24.7988 17.005 24.7988C17.0694 24.7988 17.0694 24.7988 17.0694 24.9277V25.7006C17.2627 25.3785 17.6491 24.8632 18.1644 24.8632C18.3577 24.8632 18.6153 24.9921 18.6153 25.3141C18.6153 25.5718 18.4865 25.765 18.2288 25.765C17.9712 25.765 17.9712 25.5718 17.6491 25.5718C17.5203 25.5718 17.005 25.765 17.005 26.2803V28.2771C17.005 28.5347 17.1982 28.5347 17.3915 28.5347H17.8424V28.728C17.3915 28.728 17.005 28.728 16.6829 28.728C16.3609 28.728 15.9744 28.728 15.6523 28.728V28.4059H15.7812Z" fill="#004A97"/>
<path d="M19.0656 27.4392C19.1944 28.0189 19.5165 28.4698 20.1606 28.4698C20.6759 28.4698 20.8691 28.1477 20.8691 27.8901C20.8691 26.9239 19.0012 27.246 19.0012 25.8289C19.0012 25.378 19.3876 24.7339 20.2894 24.7339C20.5471 24.7339 20.9335 24.7983 21.2556 24.9915L21.32 25.8289H21.1268C21.0624 25.3136 20.7403 24.9915 20.225 24.9915C19.9029 24.9915 19.5809 25.1848 19.5809 25.5712C19.5809 26.5374 21.5132 26.2798 21.5132 27.568C21.5132 28.1477 21.0624 28.7274 20.0318 28.7274C19.7097 28.7274 19.3232 28.5986 19.0012 28.4698L18.9368 27.5036L19.0656 27.4392Z" fill="#004A97"/>
<path d="M29.1143 24.2192H28.9211C28.7923 23.253 28.0837 22.8665 27.1175 22.8665C26.1514 22.8665 24.7343 23.5107 24.7343 25.5718C24.7343 27.2466 25.9581 28.4704 27.2464 28.4704C28.0837 28.4704 28.7923 27.8907 28.9211 26.9889L29.1143 27.0533L28.9211 28.2772C28.5346 28.4704 27.6328 28.728 27.0531 28.728C25.0564 28.728 23.8325 27.4398 23.8325 25.5718C23.8325 23.8327 25.3784 22.6089 27.0531 22.6089C27.7617 22.6089 28.4058 22.8021 29.0499 23.0598L29.1143 24.2192Z" fill="#004A97"/>
<path d="M29.4363 28.4057H29.5651C29.8228 28.4057 29.9516 28.4057 29.9516 28.1481V23.446C29.9516 22.8663 29.8228 22.8663 29.5007 22.8019V22.6731C29.8228 22.5442 30.2092 22.4154 30.4025 22.2866C30.4669 22.2222 30.5313 22.2222 30.5957 22.2222C30.6601 22.2222 30.6601 22.2866 30.6601 22.351V28.2125C30.6601 28.4702 30.8533 28.4702 31.111 28.4702H31.2398V28.6634C30.9822 28.6634 30.6601 28.6634 30.338 28.6634C30.016 28.6634 29.7583 28.6634 29.4363 28.6634V28.4057Z" fill="#004A97"/>
<path d="M34.8471 28.1483C34.8471 28.2771 34.9115 28.2771 35.1047 28.2771C35.2336 28.2771 35.3624 28.2771 35.4268 28.2771V28.4704C35.0403 28.5348 34.3962 28.6636 34.203 28.728H34.1385V28.0195C33.6232 28.406 33.2368 28.728 32.6571 28.728C32.2062 28.728 31.7553 28.406 31.7553 27.6974V25.5074C31.7553 25.3142 31.6909 25.0565 31.24 25.0565V24.9277C31.5621 24.9277 32.2062 24.8633 32.335 24.8633C32.3994 24.8633 32.3994 24.9277 32.3994 25.1209V27.3109C32.3994 27.5686 32.3994 28.2771 33.1079 28.2771C33.3656 28.2771 33.7521 28.0839 34.1385 27.7618V25.5074C34.1385 25.3142 33.7521 25.2498 33.43 25.1853V25.0565C34.203 24.9921 34.6538 24.9277 34.7183 24.9277C34.7827 24.9277 34.7827 24.9921 34.7827 25.0565V28.1483H34.8471Z" fill="#004A97"/>
<path d="M36.5218 27.6333C36.5218 27.9554 36.8438 28.4707 37.4235 28.4707C38.3253 28.4707 38.7118 27.5689 38.7118 26.8604C38.7118 25.9586 38.0032 25.1857 37.3591 25.1857C37.0371 25.1857 36.7794 25.3789 36.5862 25.5721V27.6333H36.5218ZM36.5218 25.3789C36.8438 25.1213 37.2947 24.7992 37.81 24.7992C38.7762 24.7992 39.3559 25.6365 39.3559 26.6027C39.3559 27.6977 38.5185 28.7927 37.3591 28.7927C36.715 28.7927 36.3929 28.5995 36.1997 28.4707L35.9421 28.6639L35.7488 28.5995C35.8132 28.0842 35.8776 27.6333 35.8776 27.118V23.5109C35.8776 22.9312 35.7488 22.9312 35.4268 22.8668V22.738C35.7488 22.6092 36.1353 22.4803 36.3285 22.3515C36.3929 22.2871 36.4574 22.2871 36.5218 22.2871C36.5862 22.2871 36.5862 22.3515 36.5862 22.4159V25.3789H36.5218Z" fill="#004A97"/>
<path d="M0.0646973 33.4942H0.12911C0.322346 33.4942 0.451171 33.4942 0.451171 33.2365V30.8533C0.451171 30.5956 0.257934 30.5956 0.12911 30.5956H0.0646973V30.4668C0.257934 30.4668 0.515583 30.4668 0.773232 30.4668C1.03088 30.4668 1.28853 30.4668 1.48177 30.4668V30.5956H1.41735C1.22412 30.5956 1.09529 30.5956 1.09529 30.8533V33.2365C1.09529 33.4942 1.22412 33.4942 1.41735 33.4942H1.48177V33.623C1.28853 33.623 0.966469 33.623 0.773232 33.623C0.579995 33.623 0.257934 33.623 0.12911 33.623V33.4942H0.0646973Z" fill="#006AC9"/>
<path d="M1.48177 33.623V33.4942H1.41735C1.22412 33.4942 1.03088 33.4942 1.03088 33.2365V30.8533C1.03088 30.5956 1.22412 30.5956 1.41735 30.5956H1.48177V30.4668C1.28853 30.4668 1.03088 30.4668 0.773232 30.4668C0.579995 30.4668 0.322346 30.4668 0.12911 30.4668V30.5956H0.193522C0.386759 30.5956 0.579995 30.5956 0.579995 30.8533V33.2365C0.579995 33.4942 0.386759 33.4942 0.193522 33.4942H0.12911V33.623C0.322346 33.623 0.579995 33.623 0.773232 33.623C0.966469 33.623 1.22412 33.623 1.48177 33.623ZM1.48177 33.6874C1.28853 33.6874 0.966469 33.6874 0.773232 33.6874C0.579995 33.6874 0.257934 33.6874 0.12911 33.6874V33.4942H0.193522C0.386759 33.4942 0.515583 33.4942 0.515583 33.2365V30.8533C0.515583 30.5956 0.386759 30.5956 0.193522 30.5956H0.0646973V30.4668C0.257934 30.4668 0.515583 30.4668 0.773232 30.4668C1.03088 30.4668 1.28853 30.4668 1.48177 30.4668V30.5956H1.41735C1.22412 30.5956 1.09529 30.5956 1.09529 30.8533V33.2365C1.09529 33.4942 1.22412 33.4942 1.41735 33.4942H1.48177V33.6874Z" fill="#006AC9"/>
<path d="M4.63748 32.7207V30.9816C4.63748 30.5951 4.37983 30.5307 4.25101 30.5307H4.12218V30.4019C4.31542 30.4019 4.57307 30.4019 4.76631 30.4019C4.95954 30.4019 5.15278 30.4019 5.34602 30.4019V30.5307H5.2816C5.08837 30.5307 4.89513 30.5951 4.89513 31.1104V33.1716C4.89513 33.3004 4.89513 33.4936 4.89513 33.6225H4.70189L2.31864 30.9816V32.8495C2.31864 33.236 2.38305 33.3648 2.76953 33.3648H2.83394V33.4936C2.6407 33.4936 2.44747 33.4936 2.25423 33.4936C2.06099 33.4936 1.86776 33.4936 1.61011 33.4936H1.67452C1.99658 33.4936 2.06099 33.3004 2.06099 32.9139V30.9816C2.06099 30.7239 1.86776 30.5951 1.67452 30.5951V30.4663C1.86776 30.4663 2.06099 30.4663 2.18982 30.4663C2.31864 30.4663 2.44747 30.4663 2.57629 30.4663L4.63748 32.7207Z" fill="#006AC9"/>
<path d="M4.70189 33.6874H4.83072C4.83072 33.5586 4.83072 33.3653 4.83072 33.2365V31.1753C4.83072 30.5956 5.08837 30.5956 5.2816 30.5956H5.34602V30.4668C5.15278 30.4668 4.95954 30.4668 4.83072 30.4668C4.63748 30.4668 4.44425 30.4668 4.1866 30.4668V30.5956H4.25101C4.37983 30.5956 4.70189 30.66 4.70189 31.0465V32.7856L2.6407 30.4668C2.51188 30.4668 2.38305 30.4668 2.25423 30.4668C2.06099 30.4668 1.93217 30.4668 1.73893 30.4668V30.5956H1.80334C1.99658 30.5956 2.25423 30.7889 2.25423 31.0465V32.9789C2.25423 33.3653 2.12541 33.5586 1.80334 33.5586H1.73893V33.6874C1.93217 33.6874 2.12541 33.6874 2.31864 33.6874C2.51188 33.6874 2.70512 33.6874 2.89835 33.6874V33.5586H2.76953C2.38305 33.5586 2.31864 33.4298 2.31864 32.9789V31.0465L4.70189 33.6874ZM4.89513 33.7518H4.70189L2.38305 31.1753V33.0433C2.38305 33.4298 2.44747 33.5586 2.76953 33.5586H2.89835V33.6874C2.70512 33.6874 2.51188 33.6874 2.31864 33.6874C2.12541 33.6874 1.93217 33.6874 1.67452 33.6874V33.4942H1.73893C2.06099 33.4942 2.12541 33.3009 2.12541 32.9145V30.9821C2.12541 30.7244 1.93217 30.5956 1.73893 30.5956H1.61011V30.4668C1.80334 30.4668 1.99658 30.4668 2.12541 30.4668C2.25423 30.4668 2.38305 30.4668 2.57629 30.4668L4.57307 32.7212V31.0465C4.57307 30.66 4.31542 30.66 4.1866 30.66H4.12218V30.5312C4.31542 30.5312 4.57307 30.5312 4.76631 30.5312C4.95954 30.5312 5.15278 30.5312 5.34602 30.5312V30.66H5.2816C5.08837 30.66 4.89513 30.66 4.89513 31.2397V33.3009C4.89513 33.4298 4.89513 33.5586 4.89513 33.7518Z" fill="#006AC9"/>
<path d="M6.05456 30.6599C5.7325 30.6599 5.66809 30.7243 5.60368 31.0464H5.47485C5.47485 30.9176 5.53927 30.7887 5.53927 30.6599C5.53927 30.5311 5.53927 30.4023 5.53927 30.2734H5.66809C5.7325 30.4023 5.79691 30.4023 5.92574 30.4023H8.30899C8.43782 30.4023 8.56664 30.4023 8.56664 30.2734H8.69547C8.69547 30.4023 8.63105 30.5311 8.63105 30.6599C8.63105 30.7887 8.63105 30.9176 8.63105 31.0464L8.50223 31.1108C8.50223 30.9176 8.50223 30.6599 8.18017 30.6599H7.40722V33.1076C7.40722 33.4296 7.53605 33.494 7.7937 33.494H7.85811V33.6229C7.66487 33.6229 7.34281 33.6229 7.08516 33.6229C6.82751 33.6229 6.50545 33.6229 6.31221 33.6229V33.494H6.37662C6.63427 33.494 6.7631 33.494 6.7631 33.1076V30.6599H6.05456Z" fill="#006AC9"/>
<path d="M7.85811 33.6869C7.66487 33.6869 7.34281 33.6869 7.08516 33.6869C6.82751 33.6869 6.50545 33.6869 6.31221 33.6869V33.4936H6.37662C6.63427 33.4936 6.7631 33.4936 6.7631 33.1072V30.6595H6.05456H6.82751V33.1072C6.82751 33.4936 6.69869 33.4936 6.44104 33.4936H6.37662V33.6225C6.56986 33.6225 6.89192 33.6225 7.14957 33.6225C7.34281 33.6225 7.66487 33.6225 7.85811 33.6869V33.5581H7.79369C7.60046 33.5581 7.40722 33.4936 7.40722 33.1716V30.7239H8.18017C8.50223 30.7239 8.50223 30.9816 8.56664 31.1748L8.69547 31.1104C8.69547 30.9816 8.69547 30.8527 8.69547 30.7239C8.69547 30.5951 8.69547 30.4663 8.75988 30.4019H8.69547C8.69547 30.5307 8.56664 30.5307 8.43782 30.5307H6.05456C5.92574 30.5307 5.79691 30.5307 5.79691 30.4019H5.60368C5.60368 30.5307 5.60368 30.6595 5.60368 30.7883C5.60368 30.9172 5.53927 31.046 5.53927 31.1748H5.66809C5.7325 30.8527 5.79691 30.7239 6.11898 30.7883C5.79691 30.7883 5.79691 30.8527 5.7325 31.1748H5.47485C5.47485 31.046 5.53927 30.9172 5.53927 30.7883C5.53927 30.6595 5.53927 30.5307 5.53927 30.4019H5.66809C5.66809 30.5307 5.79691 30.5307 5.92574 30.5307H8.30899C8.43782 30.5307 8.50223 30.5307 8.56664 30.4019H8.69547C8.69547 30.5307 8.63105 30.6595 8.63105 30.7883C8.63105 30.9172 8.63105 31.046 8.63105 31.1748H8.43782C8.43782 30.9816 8.43782 30.7239 8.11576 30.7239H7.40722V33.1716C7.40722 33.4936 7.53605 33.5581 7.79369 33.5581H7.92252L7.85811 33.6869Z" fill="#006AC9"/>
<path d="M8.82495 33.4942H8.88936C9.0826 33.4942 9.21143 33.4942 9.21143 33.2365V30.8533C9.21143 30.5956 9.01819 30.5956 8.88936 30.5956H8.82495V30.4668C9.0826 30.4668 9.5979 30.4668 9.98438 30.4668C10.3709 30.4668 10.8217 30.4668 11.1438 30.4668C11.1438 30.66 11.1438 30.9821 11.1438 31.1753H11.015C11.015 30.8533 10.9506 30.66 10.4353 30.66H9.79114V31.8839H10.3709C10.6285 31.8839 10.6929 31.755 10.7573 31.4974H10.8862C10.8862 31.6906 10.8862 31.8839 10.8862 32.0127C10.8862 32.2059 10.8862 32.3348 10.8862 32.528H10.7573C10.7573 32.2703 10.6929 32.0771 10.3709 32.0771H9.79114V33.1721C9.79114 33.4942 10.0488 33.4942 10.3709 33.4942C10.9506 33.4942 11.1438 33.4298 11.337 32.9145H11.4659C11.4015 33.1721 11.337 33.4298 11.337 33.623C11.015 33.623 10.4997 33.623 10.1132 33.623C9.72673 33.623 9.14701 33.623 8.88936 33.623V33.4942H8.82495Z" fill="#006AC9"/>
<path d="M11.2726 33.623C11.337 33.3654 11.337 33.1721 11.4014 32.9145H11.337C11.2082 33.4298 10.9505 33.4942 10.3708 33.4942C10.1132 33.4942 9.79113 33.4942 9.79113 33.1721V32.0771H10.3708C10.6929 32.0771 10.6929 32.2703 10.7573 32.528H10.8861C10.8861 32.3348 10.8861 32.2059 10.8861 32.0127C10.8861 31.8195 10.8861 31.6906 10.8861 31.4974H10.7573C10.7573 31.755 10.6285 31.8839 10.3708 31.8839H9.79113V30.66H10.4353C10.8861 30.66 11.015 30.9177 11.015 31.1753H11.1438C11.1438 31.0465 11.1438 30.8533 11.1438 30.7244C11.1438 30.66 11.1438 30.5956 11.1438 30.5312C10.8217 30.5312 10.3708 30.5312 9.98437 30.5312C9.59789 30.5312 9.14701 30.5312 8.88936 30.5312V30.66H8.95377C9.14701 30.66 9.34025 30.66 9.34025 30.9177V33.3009C9.34025 33.5586 9.14701 33.5586 8.95377 33.5586H8.88936V33.6874C9.14701 33.6874 9.66231 33.6874 10.1132 33.6874C10.4352 33.623 10.9505 33.623 11.2726 33.623ZM11.2726 33.6874C10.9505 33.6874 10.4352 33.6874 10.0488 33.6874C9.66231 33.6874 9.0826 33.6874 8.82495 33.6874V33.4942H8.88936C9.0826 33.4942 9.21142 33.4942 9.21142 33.2365V30.8533C9.21142 30.66 9.0826 30.5956 8.88936 30.5956H8.82495V30.4668C9.0826 30.4668 9.59789 30.4668 9.98437 30.4668C10.3708 30.4668 10.8217 30.4668 11.1438 30.4668C11.1438 30.5312 11.1438 30.5956 11.1438 30.7244C11.1438 30.8533 11.1438 31.0465 11.1438 31.1753L11.015 31.2397C11.015 30.9177 10.9505 30.7244 10.4997 30.7244H9.85554V31.8839H10.3708C10.6285 31.8839 10.6929 31.755 10.6929 31.4974H10.8217C10.8217 31.6906 10.8217 31.8839 10.8217 32.0127C10.8217 32.2059 10.8217 32.3348 10.8217 32.528H10.6929C10.6929 32.2703 10.6285 32.0771 10.3708 32.0771H9.85554V33.1077C9.85554 33.3654 10.1132 33.3654 10.3708 33.3654C10.9505 33.3654 11.1438 33.3654 11.2726 32.8501L11.4014 32.9145C11.4014 33.1721 11.337 33.4298 11.2726 33.6874Z" fill="#006AC9"/>
<path d="M12.6248 32.0127H12.8181C13.269 32.0127 13.5266 31.8195 13.5266 31.3042C13.5266 30.9177 13.269 30.66 12.8825 30.66C12.7537 30.66 12.6892 30.66 12.6248 30.66V32.0127ZM12.0451 30.9177C12.0451 30.5956 11.8519 30.5956 11.7231 30.5956H11.6587V30.4668C11.7875 30.4668 12.1095 30.4668 12.3672 30.4668C12.6248 30.4668 12.8825 30.4668 13.0757 30.4668C13.6554 30.4668 14.1707 30.5956 14.1707 31.3042C14.1707 31.6906 13.9131 31.9483 13.5266 32.1415L14.2996 33.3009C14.4284 33.4942 14.4928 33.5586 14.7504 33.5586V33.6874C14.6216 33.6874 14.4284 33.6874 14.2996 33.6874C14.1707 33.6874 13.9775 33.6874 13.8487 33.6874C13.5266 33.2365 13.2045 32.7212 12.8825 32.2059H12.5604V33.1721C12.5604 33.4942 12.7537 33.5586 12.9469 33.5586H13.0113V33.6874C12.7537 33.6874 12.496 33.6874 12.2384 33.6874C12.0451 33.6874 11.7875 33.6874 11.5942 33.6874V33.4942H11.6587C11.8519 33.4942 11.9807 33.4298 11.9807 33.2365V30.9177H12.0451Z" fill="#006AC9"/>
<path d="M12.8828 32.0127C13.3337 32.0127 13.5913 31.8839 13.5913 31.3042C13.5913 30.9177 13.3337 30.66 12.9472 30.66C12.8184 30.66 12.7539 30.66 12.6895 30.66V32.0127H12.8828ZM12.6251 32.0127V30.5956C12.6895 30.5956 12.7539 30.5956 12.8828 30.5956C13.2692 30.5956 13.5913 30.8533 13.5913 31.3042C13.5913 31.8839 13.3337 32.0127 12.8828 32.0127H12.6251ZM12.6251 32.1415H12.9472C13.2692 32.6568 13.5269 33.1721 13.9134 33.623C14.0422 33.623 14.171 33.623 14.3642 33.623C14.4931 33.623 14.6863 33.623 14.8151 33.623V33.4942C14.6219 33.4942 14.4931 33.4298 14.3642 33.2365L13.5913 32.0127C13.9778 31.8839 14.2354 31.6262 14.2354 31.2397C14.2354 30.5956 13.7201 30.4668 13.1404 30.4668C12.8828 30.4668 12.6895 30.4668 12.4319 30.4668C12.1742 30.4668 11.9166 30.4668 11.7233 30.4668V30.5956H11.7878C11.9166 30.5956 12.1098 30.5956 12.1098 30.9821V33.3009C12.1098 33.4942 11.9166 33.5586 11.7878 33.5586H11.6589V33.6874C11.8522 33.6874 12.1098 33.6874 12.3031 33.6874C12.5607 33.6874 12.8184 33.6874 13.076 33.6874V33.5586H13.0116C12.8184 33.5586 12.6251 33.5586 12.6251 33.1721V32.1415ZM14.8151 33.6874C14.6863 33.6874 14.4931 33.6874 14.3642 33.6874C14.2354 33.6874 14.1066 33.6874 13.9134 33.6874C13.5913 33.2365 13.2692 32.7212 12.9472 32.2059H12.6895V33.1721C12.6895 33.4942 12.8184 33.4942 13.076 33.4942H13.2048V33.623C12.9472 33.623 12.6895 33.623 12.4319 33.623C12.2386 33.623 11.981 33.623 11.7878 33.623V33.4942H11.8522C12.0454 33.4942 12.1742 33.4298 12.1742 33.2365V30.9177C12.1742 30.5956 11.981 30.5956 11.8522 30.5956H11.6589V30.4668C11.7878 30.4668 12.1098 30.4668 12.3675 30.4668C12.6251 30.4668 12.8828 30.4668 13.076 30.4668C13.6557 30.4668 14.171 30.66 14.171 31.3042C14.171 31.6906 13.9134 31.9483 13.5269 32.1415L14.2998 33.3009C14.4287 33.4942 14.4931 33.5586 14.7507 33.5586L14.8151 33.6874Z" fill="#006AC9"/>
<path d="M17.907 32.7207V30.9816C17.907 30.5951 17.6494 30.5307 17.5205 30.5307H17.3917V30.4019C17.585 30.4019 17.8426 30.4019 18.0358 30.4019C18.2291 30.4019 18.4223 30.4019 18.6155 30.4019V30.5307H18.5511C18.3579 30.5307 18.1647 30.5951 18.1647 31.1104V33.1716C18.1647 33.3004 18.1647 33.4936 18.1647 33.6225H17.9714L15.5882 30.9816V32.8495C15.5882 33.236 15.6526 33.3648 16.0391 33.3648H16.1679V33.4936C15.9746 33.4936 15.7814 33.4936 15.5882 33.4936C15.3949 33.4936 15.2017 33.4936 14.9441 33.4936H15.0085C15.3305 33.4936 15.3949 33.3004 15.3949 32.9139V30.9816C15.3949 30.7239 15.2017 30.5951 14.9441 30.5951H14.8796V30.4663C15.0729 30.4663 15.2017 30.4663 15.3949 30.4663C15.5238 30.4663 15.6526 30.4663 15.7814 30.4663L17.907 32.7207Z" fill="#006AC9"/>
<path d="M17.9714 33.6874H18.1003C18.1003 33.5586 18.1003 33.3653 18.1003 33.2365V31.1753C18.1003 30.5956 18.3579 30.5956 18.5511 30.5956H18.6155V30.4668C18.4223 30.4668 18.2291 30.4668 18.1003 30.4668C17.907 30.4668 17.7138 30.4668 17.4561 30.4668V30.5956H17.5205C17.6494 30.5956 17.9714 30.66 17.9714 31.0465V32.7856L15.9102 30.4668C15.7814 30.4668 15.6526 30.4668 15.5238 30.4668C15.3305 30.4668 15.2017 30.4668 15.0085 30.4668V30.5956H15.0729C15.2661 30.5956 15.5238 30.7889 15.5238 31.0465V32.9789C15.5238 33.3653 15.3949 33.5586 15.0729 33.5586H15.0085V33.6874C15.2017 33.6874 15.3949 33.6874 15.5882 33.6874C15.7814 33.6874 15.9746 33.6874 16.1679 33.6874V33.5586H16.1035C15.717 33.5586 15.6526 33.4298 15.6526 32.9789V31.0465L17.9714 33.6874ZM18.1647 33.7518H17.9714L15.6526 31.1753V33.0433C15.6526 33.4298 15.717 33.5586 16.0391 33.5586H16.1679V33.6874C15.9746 33.6874 15.7814 33.6874 15.5882 33.6874C15.3949 33.6874 15.2017 33.6874 14.9441 33.6874V33.4942H15.0085C15.3305 33.4942 15.3949 33.3009 15.3949 32.9145V30.9821C15.3949 30.7244 15.2017 30.5956 15.0085 30.5956H14.8796V30.4668C15.0729 30.4668 15.2661 30.4668 15.3949 30.4668C15.5238 30.4668 15.6526 30.4668 15.8458 30.4668L17.8426 32.7212V31.0465C17.8426 30.66 17.585 30.66 17.4561 30.66H17.3273V30.5312C17.5205 30.5312 17.7782 30.5312 17.9714 30.5312C18.1647 30.5312 18.3579 30.5312 18.5511 30.5312V30.66H18.4867C18.2935 30.66 18.1003 30.66 18.1003 31.2397V33.3009C18.1647 33.4298 18.1647 33.5586 18.1647 33.7518Z" fill="#006AC9"/>
<path d="M20.0325 30.982L19.5816 32.2702H20.419L20.0325 30.982ZM19.3884 32.9788C19.324 33.1076 19.2596 33.2364 19.2596 33.3652C19.2596 33.494 19.4528 33.494 19.5816 33.494H19.646V33.6229C19.4528 33.6229 19.2596 33.6229 19.0663 33.6229C18.8731 33.6229 18.7443 33.6229 18.551 33.6229V33.494C18.7443 33.494 18.8731 33.3652 18.9375 33.172L19.646 31.0464C19.7104 30.8531 19.7749 30.6599 19.8393 30.4667C19.9681 30.4023 20.1613 30.3378 20.2902 30.2734C20.2902 30.2734 20.2902 30.2734 20.3546 30.2734C20.3546 30.3378 20.3546 30.3379 20.419 30.4023L21.3208 32.8499C21.3852 32.9788 21.4496 33.172 21.514 33.3008C21.5784 33.4296 21.6428 33.494 21.8361 33.494V33.6229C21.6428 33.6229 21.4496 33.6229 21.1919 33.6229C20.9343 33.6229 20.741 33.6229 20.4834 33.6229V33.494H20.5478C20.6766 33.494 20.8055 33.494 20.8055 33.3652C20.8055 33.3008 20.741 33.172 20.741 33.0432L20.5478 32.5279H19.5172L19.3884 32.9788Z" fill="#006AC9"/>
<path d="M19.646 32.2707H20.4834L20.0325 30.9825L19.646 32.2707ZM19.5816 32.2707L20.0325 30.9181L20.4834 32.2707H19.5816ZM20.4834 33.6234C20.741 33.6234 20.9343 33.6234 21.1275 33.6234C21.3208 33.6234 21.514 33.6234 21.7716 33.6234V33.4946C21.6428 33.4946 21.514 33.4302 21.4496 33.3013C21.3852 33.2369 21.3208 33.0437 21.3208 32.8505L20.4834 30.4672C20.4834 30.4028 20.4834 30.4028 20.419 30.3384C20.3546 30.4028 20.1613 30.4672 20.0325 30.5316C20.0325 30.7249 19.9037 30.9181 19.8393 31.1113L19.1307 33.2369C19.0663 33.4302 18.8731 33.559 18.6799 33.559V33.6878C18.8087 33.6878 19.0019 33.6878 19.1307 33.6878C19.324 33.6878 19.5172 33.6878 19.646 33.6878V33.559C19.5172 33.559 19.2596 33.559 19.2596 33.3658C19.2596 33.3013 19.324 33.1725 19.3884 32.9793L19.5172 32.464H20.6122L20.8055 32.9793C20.8699 33.1081 20.8699 33.2369 20.8699 33.3013C20.8699 33.4302 20.6766 33.4302 20.5478 33.4302V33.6234H20.4834ZM21.8361 33.6878C21.6428 33.6878 21.4496 33.6878 21.1919 33.6878C20.9343 33.6878 20.741 33.6878 20.4834 33.6878V33.4946H20.5478C20.6766 33.4946 20.8055 33.4946 20.8055 33.3658C20.8055 33.3013 20.741 33.1725 20.741 33.0437L20.5478 32.5284H19.5172L19.3884 32.9793C19.324 33.1081 19.2596 33.2369 19.2596 33.3013C19.2596 33.4302 19.4528 33.4302 19.5816 33.4302H19.646V33.559C19.4528 33.559 19.2596 33.559 19.0663 33.559C18.8731 33.559 18.7443 33.559 18.551 33.559V33.4946C18.7443 33.4946 18.8731 33.3658 18.9375 33.2369L19.646 31.1113C19.7104 30.9181 19.7749 30.7249 19.8393 30.5316C19.9681 30.4672 20.1613 30.4028 20.2257 30.3384C20.2257 30.3384 20.2257 30.3384 20.2902 30.3384H20.3546C20.3546 30.4028 20.3546 30.4028 20.419 30.4672L21.3208 32.8505C21.3852 33.0437 21.4496 33.1725 21.514 33.3013C21.5784 33.4302 21.6428 33.4946 21.7716 33.4946H21.8361V33.6878Z" fill="#006AC9"/>
<path d="M22.0292 30.6599C21.7071 30.6599 21.6427 30.7243 21.5783 31.0464H21.4495C21.4495 30.9176 21.5139 30.7887 21.5139 30.6599C21.5139 30.5311 21.5139 30.4023 21.5139 30.2734H21.6427C21.7071 30.4023 21.7715 30.4023 21.9003 30.4023H24.2836C24.4124 30.4023 24.5412 30.4023 24.5412 30.2734H24.6701C24.6701 30.4023 24.6057 30.5311 24.6057 30.6599C24.6057 30.7887 24.6057 30.9176 24.6057 31.0464L24.4768 31.1108C24.4768 30.9176 24.4124 30.6599 24.1548 30.6599H23.3818V33.1076C23.3818 33.4296 23.5107 33.494 23.7683 33.494H23.8327V33.6229C23.6395 33.6229 23.3174 33.6229 23.0598 33.6229C22.8021 33.6229 22.4801 33.6229 22.2868 33.6229V33.494H22.3512C22.6089 33.494 22.7377 33.494 22.7377 33.1076V30.6599H22.0292Z" fill="#006AC9"/>
<path d="M23.8328 33.6869C23.6396 33.6869 23.3175 33.6869 23.0599 33.6869C22.8022 33.6869 22.4802 33.6869 22.2869 33.6869V33.4936H22.3514C22.609 33.4936 22.6734 33.4936 22.7378 33.1072V30.6595H22.0293H22.8022V33.1072C22.8022 33.4936 22.6734 33.4936 22.4158 33.4936H22.3514V33.6225C22.5446 33.6225 22.8667 33.6225 23.1243 33.6225C23.3175 33.6225 23.6396 33.6225 23.8328 33.6869V33.5581H23.7684C23.5752 33.5581 23.382 33.4936 23.382 33.1716V30.7239H24.1549C24.477 30.7239 24.477 30.9816 24.5414 31.1748L24.6702 31.1104C24.6702 30.9816 24.6702 30.8527 24.6702 30.7239C24.6702 30.5951 24.6702 30.4663 24.7346 30.4019H24.6702C24.6702 30.5307 24.5414 30.5307 24.4126 30.5307H22.0293C21.9005 30.5307 21.8361 30.5307 21.7716 30.4019H21.7072C21.7072 30.5307 21.7072 30.6595 21.7072 30.7883C21.7072 30.9172 21.6428 31.046 21.6428 31.1748H21.7716C21.8361 30.8527 21.9005 30.7239 22.2225 30.7883C21.9005 30.7883 21.9005 30.8527 21.8361 31.1748H21.6428C21.6428 31.046 21.7072 30.9172 21.7072 30.7883C21.7072 30.6595 21.7072 30.5307 21.7072 30.4019H21.8361C21.8361 30.5307 21.9649 30.5307 22.0937 30.5307H24.477C24.6058 30.5307 24.6702 30.5307 24.7346 30.4019H24.8634C24.8634 30.5307 24.799 30.6595 24.799 30.7883C24.799 30.9172 24.799 31.046 24.799 31.1748L24.6058 31.2392C24.6058 31.046 24.6058 30.7883 24.2837 30.7883H23.5752V33.236C23.5752 33.5581 23.704 33.6225 23.9617 33.6225H24.0905L23.8328 33.6869Z" fill="#006AC9"/>
<path d="M24.7986 33.4942C25.0562 33.4942 25.1851 33.4942 25.1851 33.2365V30.8533C25.1851 30.5956 24.9918 30.5956 24.863 30.5956H24.7986V30.4668C24.9918 30.4668 25.2495 30.4668 25.5071 30.4668C25.7648 30.4668 26.0224 30.4668 26.2157 30.4668V30.5956H26.1512C25.958 30.5956 25.8292 30.5956 25.8292 30.8533V33.2365C25.8292 33.4942 26.0224 33.4942 26.1512 33.4942H26.2157V33.623C26.0224 33.623 25.7004 33.623 25.5071 33.623C25.3139 33.623 24.9918 33.623 24.863 33.623V33.4942H24.7986Z" fill="#006AC9"/>
<path d="M26.2159 33.623V33.4942H26.1515C25.9583 33.4942 25.7651 33.4942 25.7651 33.2365V30.8533C25.7651 30.5956 25.9583 30.5956 26.1515 30.5956H26.2159V30.4668C26.0227 30.4668 25.7651 30.4668 25.5074 30.4668C25.3142 30.4668 25.0565 30.4668 24.8633 30.4668V30.5956H24.9277C25.1209 30.5956 25.3142 30.5956 25.3142 30.8533V33.2365C25.3142 33.4942 25.1209 33.4942 24.9277 33.4942H24.8633V33.623C25.0565 33.623 25.3142 33.623 25.5074 33.623C25.7006 33.623 25.9583 33.623 26.2159 33.623ZM26.2159 33.6874C26.0227 33.6874 25.7006 33.6874 25.5074 33.6874C25.3142 33.6874 24.9921 33.6874 24.8633 33.6874V33.4942H24.9277C25.1209 33.4942 25.2498 33.4942 25.2498 33.2365V30.8533C25.2498 30.66 25.1209 30.5956 24.9277 30.5956H24.8633V30.4668C25.0565 30.4668 25.3142 30.4668 25.5718 30.4668C25.8295 30.4668 26.0871 30.4668 26.2803 30.4668V30.5956H26.2159C26.0227 30.5956 25.8939 30.5956 25.8939 30.8533V33.2365C25.8939 33.4298 26.0227 33.4942 26.2159 33.4942H26.2803L26.2159 33.6874Z" fill="#006AC9"/>
<path d="M28.1488 33.4936C29.0505 33.4936 29.1794 32.7207 29.1794 32.0122C29.1794 31.368 28.7929 30.5307 28.0843 30.5307C27.247 30.5307 27.0537 31.2392 27.0537 31.8833C26.9893 32.7207 27.3758 33.4936 28.1488 33.4936ZM28.0843 30.4019C29.0505 30.4019 29.8235 30.9816 29.8235 32.0122C29.8235 33.0428 29.0505 33.7513 28.0843 33.7513C27.1182 33.7513 26.3452 33.1072 26.3452 32.0766C26.3452 31.1104 27.1182 30.4019 28.0843 30.4019Z" fill="#006AC9"/>
<path d="M26.9893 31.8843C26.9893 31.2402 27.247 30.5316 28.0843 30.5316C28.8573 30.5316 29.2438 31.369 29.2438 32.0131C29.2438 32.6572 29.1149 33.4946 28.1488 33.4946C29.0505 33.4946 29.1794 32.7216 29.1794 32.0775C29.1794 31.4334 28.7929 30.596 28.0843 30.596C27.247 30.596 27.0537 31.3046 26.9893 31.8843C27.0537 32.7216 27.3758 33.4946 28.1488 33.4946C27.3758 33.559 26.9893 32.7216 26.9893 31.8843ZM26.3452 32.0775C26.3452 31.1113 27.1182 30.3384 28.0843 30.3384C27.1182 30.4028 26.4096 31.1113 26.3452 32.0775C26.4096 33.0437 27.1182 33.6878 28.0843 33.6878C29.0505 33.6878 29.8235 32.9793 29.8235 31.9487C29.8235 30.9825 29.0505 30.4028 28.0843 30.4028C29.0505 30.4028 29.8879 31.0469 29.8879 32.0131C29.8879 33.1081 29.1149 33.8166 28.1488 33.8166C27.1182 33.7522 26.3452 33.1081 26.3452 32.0775Z" fill="#006AC9"/>
<path d="M32.9151 32.7207V30.9816C32.9151 30.5951 32.6574 30.5307 32.5286 30.5307H32.3998V30.4019C32.593 30.4019 32.8507 30.4019 33.0439 30.4019C33.2371 30.4019 33.4304 30.4019 33.6236 30.4019V30.5307H33.5592C33.366 30.5307 33.1727 30.5951 33.1727 31.1104V33.1716C33.1727 33.3004 33.1727 33.4936 33.1727 33.6225H32.9795L30.5962 30.9816V32.8495C30.5962 33.236 30.6606 33.3648 31.0471 33.3648H31.1115V33.4936C30.9183 33.4936 30.7251 33.4936 30.5318 33.4936C30.3386 33.4936 30.1453 33.4936 29.8877 33.4936H29.9521C30.2742 33.4936 30.3386 33.3004 30.3386 32.9139V30.9816C30.3386 30.7239 30.1453 30.5951 29.9521 30.5951H29.8877V30.4663C30.0809 30.4663 30.2098 30.4663 30.403 30.4663C30.5318 30.4663 30.6606 30.4663 30.7895 30.4663L32.9151 32.7207Z" fill="#006AC9"/>
<path d="M32.979 33.6874H33.1079C33.1079 33.5586 33.1079 33.3653 33.1079 33.2365V31.1753C33.1079 30.5956 33.3655 30.5956 33.5587 30.5956H33.6232V30.4668C33.4299 30.4668 33.2367 30.4668 33.1079 30.4668C32.9146 30.4668 32.7214 30.4668 32.4637 30.4668V30.5956H32.5281C32.657 30.5956 32.979 30.66 32.979 31.0465V32.7856L30.9178 30.4668C30.789 30.4668 30.6602 30.4668 30.5314 30.4668C30.3381 30.4668 30.2093 30.4668 30.0161 30.4668V30.5956H30.0805C30.2737 30.5956 30.5314 30.7889 30.5314 31.0465V32.9789C30.5314 33.3653 30.4025 33.5586 30.0805 33.5586H30.0161V33.6874C30.2093 33.6874 30.4025 33.6874 30.5958 33.6874C30.789 33.6874 30.9823 33.6874 31.1755 33.6874V33.5586H31.1111C30.7246 33.5586 30.6602 33.4298 30.6602 32.9789V31.0465L32.979 33.6874ZM33.1723 33.7518H32.979L30.6602 31.1753V33.0433C30.6602 33.4298 30.7246 33.5586 31.0467 33.5586H31.1755V33.6874C30.9823 33.6874 30.789 33.6874 30.5958 33.6874C30.4025 33.6874 30.2093 33.6874 29.9517 33.6874V33.4942H30.0161C30.3381 33.4942 30.4025 33.3009 30.4025 32.9145V30.9821C30.4025 30.7244 30.2093 30.5956 30.0161 30.5956H29.9517V30.4668C30.1449 30.4668 30.3381 30.4668 30.467 30.4668C30.5958 30.4668 30.7246 30.4668 30.9178 30.4668L32.9146 32.7212V31.0465C32.9146 30.66 32.657 30.66 32.5281 30.66H32.3993V30.5312C32.5926 30.5312 32.8502 30.5312 33.0434 30.5312C33.2367 30.5312 33.4299 30.5312 33.6232 30.5312V30.66H33.5587C33.3655 30.66 33.1723 30.66 33.1723 31.2397V33.3009C33.1723 33.4298 33.1723 33.5586 33.1723 33.7518Z" fill="#006AC9"/>
<path d="M35.0406 30.982L34.5897 32.2702H35.4914L35.0406 30.982ZM34.3964 32.9788C34.332 33.1076 34.2676 33.2364 34.2676 33.3652C34.2676 33.494 34.4609 33.494 34.5897 33.494H34.6541V33.6229C34.4609 33.6229 34.2676 33.6229 34.0744 33.6229C33.8811 33.6229 33.7523 33.6229 33.5591 33.6229V33.494C33.7523 33.494 33.8811 33.3652 33.9456 33.172L34.6541 31.0464C34.7185 30.8531 34.7829 30.6599 34.8473 30.4667C34.9762 30.4023 35.1694 30.3378 35.2982 30.2734C35.2982 30.2734 35.2982 30.2734 35.3626 30.2734C35.3626 30.3378 35.3626 30.3379 35.427 30.4023L36.2644 32.7855C36.3288 32.9143 36.3932 33.1076 36.4576 33.2364C36.522 33.494 36.6509 33.494 36.7797 33.494V33.6229C36.5865 33.6229 36.3932 33.6229 36.1356 33.6229C35.9423 33.6229 35.6847 33.6229 35.427 33.6229V33.494H35.4914C35.6203 33.494 35.7491 33.494 35.7491 33.3652C35.7491 33.3008 35.6847 33.172 35.6847 33.0432L35.4914 32.5279H34.4609L34.3964 32.9788Z" fill="#006AC9"/>
<path d="M34.6541 32.2707H35.427L35.0406 31.0469L34.6541 32.2707ZM34.5897 32.2707L35.0406 30.9181L35.4914 32.2707H34.5897ZM35.4914 33.6234C35.7491 33.6234 35.9423 33.6234 36.1356 33.6234C36.3288 33.6234 36.522 33.6234 36.7797 33.6234V33.4946C36.6509 33.4946 36.522 33.4302 36.4576 33.3013C36.3932 33.1725 36.3288 32.9793 36.2644 32.8505L35.427 30.4672C35.427 30.4028 35.427 30.4028 35.3626 30.3384C35.2982 30.4028 35.105 30.4672 34.9762 30.5316C34.9762 30.7249 34.8473 30.9181 34.7829 31.1113L34.0744 33.2369C34.01 33.4302 33.8167 33.559 33.6879 33.559V33.6878C33.8167 33.6878 34.01 33.6878 34.1388 33.6878C34.332 33.6878 34.5253 33.6878 34.6541 33.6878V33.559C34.5253 33.559 34.2676 33.559 34.2676 33.3658C34.2676 33.3013 34.332 33.1725 34.3964 32.9793L34.5253 32.464H35.6203L35.8135 32.9793C35.8779 33.1081 35.8779 33.2369 35.8779 33.3013C35.8779 33.4302 35.6847 33.4302 35.5559 33.4302V33.6234H35.4914ZM36.8441 33.6878C36.6509 33.6878 36.4576 33.6878 36.2 33.6878C36.0067 33.6878 35.7491 33.6878 35.4914 33.6878V33.4946H35.5559C35.6847 33.4946 35.8135 33.4946 35.8135 33.3658C35.8135 33.3013 35.7491 33.1725 35.7491 33.0437L35.5559 32.5284H34.5253L34.3964 32.9793C34.332 33.1081 34.2676 33.2369 34.2676 33.3013C34.2676 33.4302 34.4609 33.4302 34.5897 33.4302H34.6541V33.559C34.4609 33.559 34.2676 33.559 34.0744 33.559C33.8811 33.559 33.7523 33.559 33.5591 33.559V33.4946C33.7523 33.4946 33.8811 33.3658 33.9456 33.2369L34.6541 31.1113C34.7185 30.9181 34.7829 30.7249 34.8473 30.5316C34.9762 30.4672 35.1694 30.4028 35.2982 30.3384C35.2982 30.3384 35.2982 30.3384 35.3626 30.3384H35.427C35.427 30.4028 35.427 30.4028 35.4914 30.4672L36.3288 32.8505C36.3932 33.0437 36.4576 33.1725 36.522 33.3013C36.5865 33.4302 36.6509 33.4946 36.7797 33.4946H36.8441V33.6878Z" fill="#006AC9"/>
<path d="M38.0035 33.236C38.0035 33.4292 38.1323 33.4936 38.2611 33.4936C38.4543 33.4936 38.6476 33.4936 38.8408 33.4936C39.0341 33.4936 39.2273 33.3648 39.2917 33.236C39.3561 33.1072 39.4205 32.9783 39.4205 32.9139H39.5494C39.4849 33.1716 39.4205 33.4292 39.3561 33.6869C38.9696 33.6869 38.5188 33.6869 38.1323 33.6869C37.7458 33.6869 37.2949 33.6869 36.9084 33.6869V33.4936H36.9729C37.1661 33.4936 37.2949 33.4936 37.2949 33.1716V30.7883C37.2949 30.5307 37.1017 30.5307 36.9729 30.5307H36.9084V30.4019C37.1661 30.4019 37.3593 30.4019 37.617 30.4019C37.8746 30.4019 38.0679 30.4019 38.3255 30.4019V30.5307H38.1967C38.0035 30.5307 37.8746 30.5307 37.8746 30.7883V33.236H38.0035Z" fill="#006AC9"/>
<path d="M39.3564 33.623C39.4208 33.3654 39.4852 33.1077 39.5496 32.9145H39.4852C39.4852 33.0433 39.4208 33.1077 39.3564 33.2365C39.292 33.3654 39.0987 33.4942 38.9055 33.4942C38.7767 33.4942 38.6479 33.4942 38.5834 33.4942C38.519 33.4942 38.3902 33.4942 38.3258 33.4942C38.197 33.4942 38.0037 33.4298 38.0037 33.2365V30.8533C38.0037 30.5956 38.1326 30.5956 38.3258 30.5956H38.3902V30.4668C38.1326 30.4668 37.9393 30.4668 37.6817 30.4668C37.424 30.4668 37.2308 30.4668 36.9731 30.4668V30.5956H37.0376C37.2308 30.5956 37.424 30.5956 37.424 30.8533V33.2365C37.424 33.5586 37.2308 33.5586 37.0376 33.5586H36.9731V33.6874C37.3596 33.6874 37.7461 33.6874 38.197 33.6874C38.5834 33.623 38.9699 33.623 39.3564 33.623ZM39.4208 33.6874C39.0343 33.6874 38.5834 33.6874 38.197 33.6874C37.8105 33.6874 37.3596 33.6874 36.9731 33.6874V33.4942H37.0376C37.2308 33.4942 37.3596 33.4942 37.3596 33.2365V30.8533C37.3596 30.66 37.2308 30.5956 37.0376 30.5956H36.9731V30.4668C37.2308 30.4668 37.4884 30.4668 37.6817 30.4668C37.9393 30.4668 38.1326 30.4668 38.3902 30.4668V30.5956H38.2614C38.0682 30.5956 37.9393 30.5956 37.9393 30.8533V33.2365C37.9393 33.4298 38.0682 33.4298 38.197 33.4942C38.2614 33.4942 38.3902 33.4942 38.4546 33.4942C38.5834 33.4942 38.7123 33.4942 38.7767 33.4942C38.9699 33.4942 39.0987 33.3654 39.2276 33.2365C39.292 33.1077 39.3564 33.0433 39.3564 32.9145H39.4852C39.5496 33.1721 39.4852 33.4298 39.4208 33.6874Z" fill="#006AC9"/>
<path d="M39.4204 30.7893C39.5492 30.7893 39.5492 30.7249 39.5492 30.6604C39.5492 30.596 39.4848 30.5316 39.4848 30.5316H39.4204V30.7893ZM39.2915 31.0469C39.356 31.0469 39.356 31.0469 39.356 30.9825V30.596C39.356 30.5316 39.356 30.5316 39.2915 30.5316H39.5492C39.6136 30.5316 39.7424 30.596 39.7424 30.6604C39.7424 30.7249 39.678 30.7893 39.6136 30.7893L39.678 30.9181C39.7424 30.9825 39.7424 31.0469 39.8068 31.0469H39.7424C39.678 31.0469 39.678 30.9825 39.5492 30.8537H39.4848V30.9825C39.4848 31.0469 39.4848 30.9825 39.5492 31.0469H39.2915ZM39.4848 31.1757C39.678 31.1757 39.8713 30.9825 39.8713 30.7893C39.8713 30.596 39.678 30.4028 39.4848 30.4028C39.2915 30.4028 39.0983 30.596 39.0983 30.7893C39.1627 30.9825 39.2915 31.1757 39.4848 31.1757ZM39.4848 30.3384C39.7424 30.3384 40.0001 30.5316 40.0001 30.8537C40.0001 31.1757 39.8068 31.3046 39.4848 31.3046C39.1627 31.3046 38.9695 31.1113 38.9695 30.8537C38.9695 30.596 39.2271 30.3384 39.4848 30.3384Z" fill="#006AC9"/>
<path d="M28.5987 12.9474C28.5987 10.8862 27.7614 9.01822 26.3443 7.53674C24.9916 6.69938 23.3813 6.18408 21.7066 6.18408H17.9707C13.5263 6.18408 9.91919 9.46911 9.91919 14.2356C9.91919 16.2324 10.6921 18.0359 11.916 19.453C13.2042 20.3548 14.7501 20.9989 16.4248 21.2565C13.1398 20.548 10.6921 17.6495 10.6921 14.1068C10.6921 10.0488 13.9772 6.76379 17.9707 6.76379C22.0287 6.76379 25.3137 10.0488 25.3137 14.1068C25.3137 18.1003 22.1575 21.321 18.1639 21.3854C18.2928 21.3854 18.3572 21.3854 18.486 21.3854C24.0255 21.4498 28.5987 17.6495 28.5987 12.9474Z" fill="#004A97"/>
<path d="M17.9067 6.18408C13.4623 6.18408 9.85522 9.46911 9.85522 14.2356C9.85522 16.168 10.5638 17.9715 11.7876 19.3242C11.852 19.3886 11.9164 19.453 11.9808 19.5174C13.2691 20.4192 14.7505 20.9989 16.4253 21.321C13.1402 20.6124 10.6926 17.7139 10.6926 14.1712C10.6926 10.1132 13.9776 6.82821 17.9712 6.82821C22.0291 6.82821 25.3141 10.1132 25.3141 14.1712C25.3141 18.1648 22.1579 21.3854 18.1644 21.4498C18.2932 21.4498 18.3576 21.4498 18.4865 21.4498C18.8085 21.4498 19.1306 21.4498 19.4526 21.3854C23.7038 20.3548 26.4091 16.0392 25.6362 11.4659C25.2497 9.34029 24.2191 7.53674 22.7377 6.24849C22.4156 6.18408 22.0935 6.18408 21.7715 6.18408H17.9067Z" fill="#006AC9"/>
</g>
<defs>
<clipPath id="clip0_341_822">
<rect width="40" height="40" fill="white"/>
</clipPath>
</defs>
</svg>
