<svg width="37" height="27" viewBox="0 0 37 27" fill="none" xmlns="http://www.w3.org/2000/svg">
<path d="M37 24.0707C37 25.2787 36.0208 26.258 34.8129 26.258H2.18712C0.979199 26.2581 0 25.2787 0 24.0707V2.9284C0 1.72048 0.979199 0.741211 2.18712 0.741211H34.8129C36.0209 0.741211 37 1.72048 37 2.9284V24.0707Z" fill="#306FC5"/>
<path d="M5.39038 10.9519H6.4959L5.94329 9.54492L5.39038 10.9519Z" fill="white"/>
<path d="M11.269 15.6748V16.3282H13.1284V17.0318H11.269V17.7858H13.3293L14.284 16.7302L13.3796 15.6748H11.269Z" fill="white"/>
<path d="M25.791 9.54492L25.188 10.9519H26.3439L25.791 9.54492Z" fill="white"/>
<path d="M16.6462 18.1874V15.3232L15.3396 16.7303L16.6462 18.1874Z" fill="white"/>
<path d="M19.1084 16.1273C19.0581 15.8258 18.8569 15.6748 18.5553 15.6748H17.5002V16.5793H18.6059C18.9073 16.5794 19.1084 16.4287 19.1084 16.1273Z" fill="white"/>
<path d="M22.6254 16.4794C22.726 16.429 22.7764 16.2781 22.7764 16.1277C22.8267 15.9268 22.726 15.8262 22.6254 15.7759C22.5252 15.7256 22.3742 15.7256 22.2237 15.7256H21.2185V16.5297H22.2236C22.3742 16.5297 22.5251 16.5297 22.6254 16.4794Z" fill="white"/>
<path d="M29.8613 8.23828V8.84127L29.56 8.23828H27.1985V8.84127L26.8969 8.23828H23.6809C23.1282 8.23828 22.6758 8.33888 22.274 8.53985V8.23828H20.0129V8.28858V8.53985C19.7617 8.33895 19.4602 8.23828 19.0582 8.23828H10.968L10.415 9.49455L9.86242 8.23828H8.05354H7.29974V8.84127L7.04847 8.23828H6.99818H4.83751L3.83236 10.5999L2.67676 13.1626L2.65552 13.213H2.67676H5.23952H5.27161L5.28982 13.1626L5.59145 12.409H6.24466L6.54615 13.213H9.46034V13.1626V12.61L9.71175 13.2129H11.1688L11.42 12.61V13.1626V13.213H12.5757H18.3544H18.4047V11.9064H18.5055C18.6058 11.9064 18.6058 11.9064 18.6058 12.0572V13.1627H22.2238V12.8612C22.5253 13.0121 22.9773 13.1627 23.5803 13.1627H25.088L25.3895 12.3589H26.0928L26.3943 13.1627H29.3086V12.6603V12.4091L29.7611 13.1627H29.8613H29.9117H32.1227V8.23828H29.8614H29.8613ZM12.8271 12.4594H12.3245H12.0231V12.1581V9.69559L11.9728 9.81085V9.80948L10.8038 12.4594H10.7668H10.4981H10.0633L8.85735 9.69559V12.4594H7.14899L6.79728 11.7057H5.08863L4.73684 12.4594H3.85354L5.34004 8.94186H6.59616L8.0031 12.3085V8.94186H8.30452H9.33438L9.35808 8.99223H9.35982L9.9938 10.3721L10.4491 11.4059L10.4652 11.3538L11.4701 8.94193H12.827V12.4594H12.8271ZM16.2944 9.69559H14.3347V10.3488H16.2441V11.0522H14.3347V11.756H16.2944V12.5095H13.4805V8.94193H16.2944V9.69559ZM19.8784 10.9913C19.8797 10.9925 19.8814 10.9933 19.883 10.9943C19.902 11.0144 19.9183 11.0346 19.9321 11.0539C20.0284 11.1801 20.1062 11.3677 20.1101 11.6429C20.1104 11.6477 20.1106 11.6524 20.1109 11.6572C20.1109 11.6599 20.1114 11.6623 20.1114 11.6651C20.1114 11.6667 20.1113 11.6679 20.1113 11.6695C20.1124 11.6971 20.1132 11.7254 20.1132 11.756V12.4595H19.3596V12.0573C19.3596 11.8563 19.3596 11.5548 19.2086 11.3538C19.1611 11.3063 19.1131 11.275 19.0608 11.2528C18.9855 11.204 18.8427 11.2032 18.6058 11.2032H17.7011V12.4595H16.847V8.94193H18.7567C19.2086 8.94193 19.5102 8.94193 19.7616 9.09268C20.0078 9.24053 20.1565 9.48573 20.1622 9.87401C20.1505 10.4088 19.8073 10.7022 19.5605 10.8011C19.5605 10.8011 19.7281 10.8349 19.8784 10.9913ZM21.5705 12.4594H20.7162V8.94186H21.5705V12.4594ZM31.3692 12.4594H30.2635L28.6556 9.79604V12.007L28.6503 12.0018V12.4616H27.8014V12.4595H26.9471L26.6456 11.7057H24.8867L24.5852 12.5095H23.6305C23.2288 12.5095 22.726 12.4092 22.4246 12.1077C22.1232 11.8062 21.9726 11.4042 21.9726 10.751C21.9726 10.2486 22.0729 9.74574 22.4246 9.34387C22.6757 9.04216 23.1282 8.94193 23.6808 8.94193H24.4849V9.69559H23.6808C23.3793 9.69559 23.2288 9.74567 23.0274 9.89671C22.877 10.0474 22.7764 10.3488 22.7764 10.7005C22.7764 11.1026 22.8267 11.3538 23.0274 11.5548C23.1785 11.7057 23.3793 11.756 23.6305 11.756H23.9823L25.1379 8.99237H25.6406H26.3942L27.8014 12.359V12.1873V11.0524V10.952V8.99245H29.0575L30.5144 11.4545V8.99245H31.369V12.4595H31.3692V12.4594Z" fill="white"/>
<path d="M19.1621 10.4071C19.1768 10.3914 19.1901 10.3737 19.2013 10.3533C19.2469 10.2812 19.299 10.1514 19.2709 9.97431C19.2698 9.95805 19.2668 9.94302 19.2634 9.9285C19.2624 9.92445 19.2626 9.92091 19.2615 9.91686L19.261 9.91693C19.236 9.83087 19.1722 9.77797 19.1085 9.74588C19.0077 9.6958 18.857 9.6958 18.7063 9.6958H17.7012V10.4999H18.7063C18.857 10.4999 19.0078 10.4999 19.1085 10.4495C19.1236 10.4419 19.137 10.4315 19.15 10.4197L19.1501 10.4203C19.1502 10.4203 19.1553 10.4149 19.1621 10.4071Z" fill="white"/>
<path d="M34.3338 17.4842C34.3338 17.1325 34.2335 16.7806 34.0828 16.5294V14.2683H34.0805V14.1173C34.0805 14.1173 31.9743 14.1173 31.6608 14.1173C31.3475 14.1173 30.9672 14.4188 30.9672 14.4188V14.1173H28.6558C28.3039 14.1173 27.852 14.2179 27.6507 14.4188V14.1173H23.5304V14.2683V14.4187C23.2291 14.1676 22.6759 14.1173 22.4249 14.1173H19.7114V14.2682V14.4186C19.4602 14.1676 18.8569 14.1172 18.5553 14.1172H15.5408L14.8371 14.871L14.1839 14.1172H13.9735H13.6312H9.66162V14.2681V14.6651V19.1926H14.0836L14.8101 18.4658L15.4399 19.1926H15.4903H18.0383H18.1538H18.2041H18.2541V18.6902V18.0369H18.5055C18.8569 18.0369 19.3094 18.0369 19.6611 17.886V19.1421V19.2428H21.9224V19.1421V17.9363H22.0226C22.1735 17.9363 22.1735 17.9363 22.1735 18.087V19.1421V19.2428H29.0072C29.4598 19.2428 29.9118 19.1421 30.1629 18.9411V19.1421V19.2428H32.3238C32.7758 19.2428 33.2284 19.1926 33.5299 18.9915C33.9925 18.7139 34.2841 18.2226 34.3275 17.6366C34.3295 17.6193 34.332 17.6019 34.3336 17.5845L34.3306 17.5817C34.3325 17.5492 34.3338 17.517 34.3338 17.4842ZM18.5056 17.1828H17.5003V17.3332V17.6348V17.9364V18.4891H15.8487L14.8874 17.3835L14.8841 17.3872L14.8371 17.3332L13.7317 18.4891H10.5158V14.9717H13.782L14.6743 15.9491L14.8619 16.1538L14.8874 16.1274L15.9427 14.9718H18.6059C19.1227 14.9718 19.7015 15.0994 19.9208 15.6252C19.9472 15.7294 19.9625 15.8451 19.9625 15.9767C19.9625 16.9816 19.259 17.1828 18.5056 17.1828ZM23.5304 17.1324C23.6308 17.2828 23.6811 17.4841 23.6811 17.7858V18.489H22.827V18.0369C22.827 17.8356 22.827 17.4841 22.676 17.3332C22.5758 17.1828 22.3745 17.1828 22.0732 17.1828H21.1688V18.4891H20.3147V14.9214H22.224C22.6257 14.9214 22.9774 14.9214 23.2291 15.072C23.4802 15.2229 23.6811 15.4742 23.6811 15.8762C23.6811 16.4288 23.3295 16.7303 23.0782 16.831C23.3295 16.9311 23.4802 17.0319 23.5304 17.1324ZM26.9977 15.6749H25.0377V16.3282H26.9473V17.0318H25.0377V17.7354H26.9977V18.489H24.1838V14.9214H26.9977V15.6749ZM29.108 18.4891H27.5V17.7355H29.108C29.2585 17.7355 29.3592 17.7355 29.4599 17.6349C29.5102 17.5845 29.5602 17.4842 29.5602 17.3836C29.5602 17.2829 29.5102 17.1828 29.4599 17.1325C29.4095 17.0822 29.3088 17.0319 29.1582 17.0319C28.3541 16.9817 27.3994 17.0319 27.3994 15.9266C27.3994 15.424 27.7009 14.8712 28.6055 14.8712H30.2636V15.7253H28.706C28.5553 15.7253 28.4547 15.7253 28.3541 15.7756C28.2538 15.826 28.2538 15.9266 28.2538 16.027C28.2538 16.1778 28.3541 16.2281 28.4546 16.2779C28.5553 16.3283 28.6557 16.3283 28.7561 16.3283H29.2084C29.6607 16.3283 29.9621 16.4288 30.1631 16.6299C30.3139 16.7807 30.4144 17.0319 30.4144 17.3836C30.4144 18.1371 29.9622 18.4891 29.108 18.4891ZM33.4294 18.1371C33.2287 18.3384 32.8767 18.4891 32.3741 18.4891H30.7664V17.7355H32.374C32.5248 17.7355 32.6255 17.7355 32.7259 17.6349C32.776 17.5845 32.8264 17.4842 32.8264 17.3836C32.8264 17.2829 32.776 17.1828 32.7259 17.1325C32.6756 17.0822 32.5752 17.0319 32.4244 17.0319C31.6207 16.9817 30.6657 17.0319 30.6657 15.9266C30.6657 15.449 30.9389 15.0176 31.6128 14.8895C31.6934 14.8784 31.7785 14.8712 31.8717 14.8712H33.5301V15.7253H32.4244H32.0226H31.9723C31.8214 15.7253 31.7211 15.7253 31.6207 15.7756C31.5701 15.826 31.5198 15.9266 31.5198 16.027C31.5198 16.1778 31.5701 16.2281 31.7211 16.2779C31.8214 16.3283 31.922 16.3283 32.0226 16.3283H32.0725H32.4746C32.6943 16.3283 32.8603 16.3554 33.0123 16.4088C33.1515 16.4592 33.6123 16.6653 33.7153 17.2033C33.7243 17.2597 33.7308 17.3185 33.7308 17.3836C33.7308 17.6852 33.6303 17.9364 33.4294 18.1371Z" fill="white"/>
</svg>
