<svg width="44" height="34" viewBox="0 0 44 34" fill="none" xmlns="http://www.w3.org/2000/svg">
<path d="M7.99889 33.8311V31.5807C7.99889 30.718 7.47066 30.1554 6.56512 30.1554C6.11235 30.1554 5.62185 30.3054 5.28227 30.793C5.01815 30.3805 4.64085 30.1554 4.07488 30.1554C3.69758 30.1554 3.32027 30.2679 3.01842 30.6805V30.2304H2.22607V33.8311H3.01842V31.8432C3.01842 31.2056 3.358 30.9056 3.88623 30.9056C4.41446 30.9056 4.67858 31.2431 4.67858 31.8432V33.8311H5.47092V31.8432C5.47092 31.2056 5.84823 30.9056 6.33873 30.9056C6.86696 30.9056 7.13108 31.2431 7.13108 31.8432V33.8311H7.99889ZM19.7332 30.2304H18.4503V29.1427H17.658V30.2304H16.9411V30.9431H17.658V32.5934C17.658 33.4185 17.9976 33.9061 18.9031 33.9061C19.2427 33.9061 19.62 33.7936 19.8841 33.6435L19.6577 32.9684C19.4313 33.1185 19.1672 33.156 18.9786 33.156C18.6012 33.156 18.4503 32.9309 18.4503 32.5559V30.9431H19.7332V30.2304ZM26.4493 30.1554C25.9965 30.1554 25.6946 30.3805 25.506 30.6805V30.2304H24.7136V33.8311H25.506V31.8057C25.506 31.2056 25.7701 30.868 26.2606 30.868C26.4115 30.868 26.6002 30.9056 26.7511 30.9431L26.9775 30.1929C26.8266 30.1554 26.6002 30.1554 26.4493 30.1554ZM16.2997 30.5305C15.9224 30.2679 15.3941 30.1554 14.8282 30.1554C13.9226 30.1554 13.3189 30.6055 13.3189 31.3181C13.3189 31.9182 13.7717 32.2558 14.5641 32.3683L14.9414 32.4058C15.3564 32.4808 15.5828 32.5934 15.5828 32.7809C15.5828 33.0434 15.2809 33.231 14.7527 33.231C14.2245 33.231 13.8094 33.0434 13.5453 32.8559L13.168 33.456C13.5831 33.7561 14.149 33.9061 14.715 33.9061C15.7714 33.9061 16.3751 33.4185 16.3751 32.7434C16.3751 32.1058 15.8846 31.7682 15.13 31.6557L14.7527 31.6182C14.4131 31.5807 14.149 31.5057 14.149 31.2806C14.149 31.0181 14.4131 30.868 14.8282 30.868C15.2809 30.868 15.7337 31.0556 15.9601 31.1681L16.2997 30.5305ZM37.3535 30.1554C36.9007 30.1554 36.5989 30.3805 36.4102 30.6805V30.2304H35.6178V33.8311H36.4102V31.8057C36.4102 31.2056 36.6743 30.868 37.1648 30.868C37.3157 30.868 37.5044 30.9056 37.6553 30.9431L37.8817 30.1929C37.7308 30.1554 37.5044 30.1554 37.3535 30.1554ZM27.2416 32.0308C27.2416 33.1185 27.9962 33.9061 29.1659 33.9061C29.6941 33.9061 30.0714 33.7936 30.4487 33.4935L30.0714 32.8559C29.7696 33.0809 29.4677 33.1935 29.1281 33.1935C28.4867 33.1935 28.034 32.7434 28.034 32.0308C28.034 31.3556 28.4867 30.9056 29.1281 30.868C29.4677 30.868 29.7696 30.9806 30.0714 31.2056L30.4487 30.568C30.0714 30.2679 29.6941 30.1554 29.1659 30.1554C27.9962 30.1554 27.2416 30.9431 27.2416 32.0308ZM34.5614 32.0308V30.2304H33.769V30.6805C33.5049 30.343 33.1276 30.1554 32.6371 30.1554C31.6184 30.1554 30.826 30.9431 30.826 32.0308C30.826 33.1185 31.6184 33.9061 32.6371 33.9061C33.1653 33.9061 33.5427 33.7186 33.769 33.381V33.8311H34.5614V32.0308ZM31.6561 32.0308C31.6561 31.3931 32.0711 30.868 32.7503 30.868C33.3917 30.868 33.8445 31.3556 33.8445 32.0308C33.8445 32.6684 33.3917 33.1935 32.7503 33.1935C32.0711 33.156 31.6561 32.6684 31.6561 32.0308ZM22.1857 30.1554C21.1292 30.1554 20.3746 30.9056 20.3746 32.0308C20.3746 33.156 21.1292 33.9061 22.2234 33.9061C22.7516 33.9061 23.2799 33.7561 23.6949 33.4185L23.3176 32.8559C23.0158 33.0809 22.6384 33.231 22.2611 33.231C21.7706 33.231 21.2801 33.0059 21.1669 32.3683H23.8458V32.0683C23.8836 30.9056 23.2044 30.1554 22.1857 30.1554ZM22.1857 30.8305C22.6762 30.8305 23.0158 31.1306 23.0912 31.6932H21.2047C21.2801 31.2056 21.6197 30.8305 22.1857 30.8305ZM41.8434 32.0308V28.8052H41.0511V30.6805C40.787 30.343 40.4097 30.1554 39.9192 30.1554C38.9004 30.1554 38.1081 30.9431 38.1081 32.0308C38.1081 33.1185 38.9004 33.9061 39.9192 33.9061C40.4474 33.9061 40.8247 33.7186 41.0511 33.381V33.8311H41.8434V32.0308ZM38.9382 32.0308C38.9382 31.3931 39.3532 30.868 40.0324 30.868C40.6738 30.868 41.1265 31.3556 41.1265 32.0308C41.1265 32.6684 40.6738 33.1935 40.0324 33.1935C39.3532 33.156 38.9382 32.6684 38.9382 32.0308ZM12.4511 32.0308V30.2304H11.6588V30.6805C11.3947 30.343 11.0174 30.1554 10.5269 30.1554C9.50812 30.1554 8.71578 30.9431 8.71578 32.0308C8.71578 33.1185 9.50812 33.9061 10.5269 33.9061C11.0551 33.9061 11.4324 33.7186 11.6588 33.381V33.8311H12.4511V32.0308ZM9.50812 32.0308C9.50812 31.3931 9.92316 30.868 10.6023 30.868C11.2437 30.868 11.6965 31.3556 11.6965 32.0308C11.6965 32.6684 11.2437 33.1935 10.6023 33.1935C9.92316 33.156 9.50812 32.6684 9.50812 32.0308Z" fill="black"/>
<path d="M27.9209 2.88818H16.0356V24.117H27.9209V2.88818Z" fill="#FF5F00"/>
<path d="M16.7902 13.5024C16.7902 9.18915 18.8277 5.36346 21.9593 2.88802C19.6578 1.0877 16.7525 0 13.5831 0C6.07466 0 0 6.03859 0 13.5024C0 20.9663 6.07466 27.0049 13.5831 27.0049C16.7525 27.0049 19.6578 25.9172 21.9593 24.1168C18.8277 21.6789 16.7902 17.8157 16.7902 13.5024Z" fill="#EB001B"/>
<path d="M43.9564 13.5024C43.9564 20.9663 37.8818 27.0049 30.3733 27.0049C27.2039 27.0049 24.2987 25.9172 21.9971 24.1168C25.1665 21.6414 27.1662 17.8157 27.1662 13.5024C27.1662 9.18915 25.1287 5.36346 21.9971 2.88802C24.2987 1.0877 27.2039 0 30.3733 0C37.8818 0 43.9564 6.07609 43.9564 13.5024Z" fill="#F79E1B"/>
</svg>
