<svg width="39" height="39" viewBox="0 0 39 39" fill="none" xmlns="http://www.w3.org/2000/svg">
<g clip-path="url(#clip0_341_710)">
<path d="M29.6332 7.07032C28.7746 6.25293 27.5297 5.98711 26.4122 6.38256C26.0962 6.48817 25.866 6.76213 25.8166 7.09159L25.5684 8.79692C25.1921 11.3727 22.9882 13.2855 20.3851 13.2959H16.8398C16.4329 13.296 16.0785 13.5731 15.98 13.9677L13.321 24.6037C13.2025 25.0787 13.4915 25.5597 13.9665 25.6782C14.0365 25.6956 14.1085 25.7045 14.1807 25.7045H18.6123C19.0191 25.7045 19.3736 25.4274 19.4721 25.0327L21.0764 18.6139H24.5331C27.1866 18.6227 29.5014 16.8141 30.1346 14.2372L30.7887 11.6155C31.2493 10.0028 30.8079 8.2672 29.6332 7.07032Z" fill="#03A9F4"/>
<path d="M0.886109 36.3402C0.396605 36.3401 -0.000166135 35.9432 5.21863e-08 35.4537C5.21863e-08 35.3815 0.00889105 35.3095 0.0263407 35.2395L0.912699 31.7119V31.6747L1.79906 28.1489C1.89752 27.7542 2.252 27.4771 2.65882 27.4771H4.91365C6.13745 27.4768 7.12967 28.4686 7.13 29.6924C7.13 29.8736 7.10782 30.0542 7.06394 30.23L6.84233 31.1164C6.59579 32.1031 5.70919 32.7953 4.69212 32.7951H2.46555L1.74762 35.6686C1.64899 36.0638 1.29352 36.341 0.886109 36.3402ZM2.90869 31.0222H4.69196C4.89529 31.0217 5.07211 30.8828 5.12097 30.6855L5.34258 29.7991C5.40332 29.563 5.26106 29.3224 5.02499 29.2617C4.9886 29.2523 4.95121 29.2477 4.91357 29.2479H3.35182L2.90869 31.0222Z" fill="#283593"/>
<path d="M10.3646 36.3403H9.10251C7.74559 36.3407 6.64535 35.2409 6.64502 33.884C6.64494 33.683 6.66962 33.4827 6.71831 33.2878L6.8353 32.8163C7.09763 31.758 8.04946 31.0163 9.13973 31.0205H10.4018C11.7588 31.0229 12.8568 32.1248 12.8545 33.4817C12.8542 33.6817 12.8294 33.8808 12.7808 34.0748L12.6638 34.5463C12.4012 35.602 11.4524 36.3423 10.3646 36.3403ZM8.4395 33.7186C8.34843 34.0853 8.57196 34.4564 8.93873 34.5475C8.99232 34.5608 9.04725 34.5675 9.10251 34.5677H10.3646C10.6379 34.5684 10.8764 34.3826 10.9425 34.1174L11.0595 33.6459C11.1506 33.2791 10.9271 32.908 10.5603 32.8169C10.5067 32.8036 10.4518 32.7969 10.3965 32.7967H9.13441C8.86112 32.796 8.62264 32.9818 8.5565 33.247L8.4395 33.7186Z" fill="#283593"/>
<path d="M11.5221 36.3403C11.0326 36.3402 10.6359 35.9432 10.636 35.4537C10.636 35.3815 10.6449 35.3096 10.6623 35.2395L11.5487 31.6942C11.6672 31.2189 12.1485 30.9295 12.6238 31.048C13.0991 31.1665 13.3885 31.6478 13.27 32.1232L12.3836 35.6685C12.285 36.0639 11.9295 36.3411 11.5221 36.3403Z" fill="#283593"/>
<path d="M22.1581 36.3403C21.6686 36.3401 21.2719 35.9432 21.272 35.4537C21.272 35.3815 21.2809 35.3095 21.2983 35.2395L22.1847 31.7119V31.6747L23.071 28.1489C23.1695 27.7542 23.524 27.4771 23.9308 27.4771H26.1856C27.4094 27.4768 28.4016 28.4686 28.402 29.6924C28.402 29.8736 28.3798 30.0542 28.3359 30.23L28.1143 31.1164C27.8678 32.1031 26.9812 32.7953 25.9641 32.7951H23.7376L23.0197 35.6686C22.921 36.0639 22.5655 36.3411 22.1581 36.3403ZM24.1807 31.0223H25.9658C26.1691 31.0217 26.3459 30.8829 26.3948 30.6855L26.6164 29.7992C26.677 29.5631 26.5349 29.3225 26.2988 29.2618C26.2624 29.2524 26.2249 29.2478 26.1874 29.2479H24.6239L24.1807 31.0223Z" fill="#03A9F4"/>
<path d="M31.6363 36.3403H30.3742C29.0173 36.3407 27.9171 35.2409 27.9167 33.884C27.9167 33.683 27.9413 33.4828 27.99 33.2878L28.107 32.8163C28.3694 31.758 29.3212 31.0163 30.4115 31.0205H31.6736C33.0305 31.0202 34.1307 32.1199 34.1311 33.4769C34.1311 33.6779 34.1065 33.8781 34.0578 34.073L33.9408 34.5446C33.6785 35.6029 32.7266 36.3446 31.6363 36.3403ZM29.7112 33.7186C29.6202 34.0853 29.8437 34.4564 30.2105 34.5475C30.2641 34.5608 30.319 34.5675 30.3742 34.5677H31.6363C31.9096 34.5685 32.1481 34.3827 32.2143 34.1174L32.3313 33.6459C32.4223 33.2791 32.1988 32.908 31.832 32.8169C31.7784 32.8036 31.7235 32.7969 31.6683 32.7967H30.4061C30.1329 32.796 29.8944 32.9818 29.8282 33.247L29.7112 33.7186Z" fill="#03A9F4"/>
<path d="M32.7941 36.3403C32.3046 36.3402 31.9079 35.9432 31.908 35.4537C31.908 35.3815 31.9168 35.3096 31.9343 35.2395L32.8207 31.6942C32.9392 31.2189 33.4204 30.9295 33.8958 31.048C34.3711 31.1665 34.6604 31.6478 34.5419 32.1232L33.6556 35.6685C33.557 36.0639 33.2015 36.3411 32.7941 36.3403Z" fill="#03A9F4"/>
<path d="M16.8401 35.4542C16.5436 35.4541 16.2669 35.3058 16.1027 35.059L14.33 32.4C14.0583 31.9927 14.1683 31.4423 14.5756 31.1706C14.9829 30.8989 15.5332 31.0088 15.8049 31.4162L17.5776 34.0751C17.8497 34.4821 17.7405 35.0325 17.3337 35.3047C17.1876 35.4023 17.0158 35.4543 16.8401 35.4542Z" fill="#283593"/>
<path d="M15.0674 38.1136C14.5779 38.1134 14.1812 37.7164 14.1814 37.2269C14.1815 37.0198 14.2541 36.8192 14.3867 36.66L18.8183 31.342C19.1321 30.9661 19.6912 30.9156 20.0672 31.2294C20.4431 31.5431 20.4935 32.1023 20.1797 32.4782L15.7481 37.7962C15.5795 37.9977 15.3302 38.1139 15.0674 38.1136Z" fill="#283593"/>
<path d="M36.3392 36.3402C35.8497 36.34 35.453 35.9431 35.4531 35.4536C35.4531 35.3814 35.462 35.3094 35.4795 35.2394L37.2521 28.1488C37.3706 27.6735 37.8519 27.3841 38.3272 27.5026C38.8025 27.6211 39.0919 28.1024 38.9734 28.5778L37.2007 35.6684C37.1022 36.0637 36.7467 36.3409 36.3392 36.3402Z" fill="#03A9F4"/>
<path d="M26.7068 2.42053C25.8552 1.4451 24.6231 0.885963 23.3281 0.887209H13.2948C12.8662 0.887209 12.499 1.19399 12.4227 1.61577L8.87735 21.115C8.79019 21.5967 9.1101 22.0578 9.59179 22.1449C9.64381 22.1543 9.69665 22.1591 9.7495 22.1591H15.0675C15.4743 22.159 15.8288 21.8819 15.9273 21.4872L17.5333 15.0684H20.3855C23.8719 15.0547 26.8234 12.4915 27.3254 9.04142L27.7686 6.01192C27.9513 4.71757 27.564 3.40752 26.7068 2.42053Z" fill="#283593"/>
</g>
<defs>
<clipPath id="clip0_341_710">
<rect width="39" height="39" fill="white"/>
</clipPath>
</defs>
</svg>
