<svg width="48" height="48" viewBox="0 0 48 48" fill="none" xmlns="http://www.w3.org/2000/svg">
<g clip-path="url(#clip0_341_756)">
<path d="M17.5999 30.8954L20.0379 17.1812H23.8475L21.4856 30.8954H17.5999Z" fill="#3C58BF"/>
<path d="M17.5999 30.8954L20.7237 17.1812H23.8475L21.4856 30.8954H17.5999Z" fill="#293688"/>
<path d="M35.2763 17.3332C34.5144 17.0284 33.2953 16.7236 31.7715 16.7236C27.962 16.7236 25.2191 18.6284 25.2191 21.3713C25.2191 23.4284 27.1239 24.4951 28.6477 25.1808C30.1715 25.8665 30.6287 26.3236 30.6287 26.9332C30.6287 27.8474 29.4096 28.3046 28.343 28.3046C26.8191 28.3046 25.981 28.076 24.6858 27.5427L24.1525 27.3141L23.6191 30.4379C24.5334 30.8189 26.2096 31.1998 27.962 31.1998C32.0001 31.1998 34.6668 29.2951 34.6668 26.3998C34.6668 24.7998 33.6763 23.5808 31.3906 22.5903C30.0191 21.9046 29.181 21.5236 29.181 20.8379C29.181 20.2284 29.8668 19.6189 31.3906 19.6189C32.6858 19.6189 33.6001 19.8474 34.2858 20.1522L34.6668 20.3046L35.2763 17.3332Z" fill="#3C58BF"/>
<path d="M35.2763 17.3332C34.5144 17.0284 33.2953 16.7236 31.7715 16.7236C27.962 16.7236 25.9049 18.6284 25.9049 21.3713C25.9049 23.4284 27.1239 24.4951 28.6477 25.1808C30.1715 25.8665 30.6287 26.3236 30.6287 26.9332C30.6287 27.8474 29.4096 28.3046 28.343 28.3046C26.8191 28.3046 25.981 28.076 24.6858 27.5427L24.1525 27.3141L23.6191 30.4379C24.5334 30.8189 26.2096 31.1998 27.962 31.1998C32.0001 31.1998 34.6668 29.2951 34.6668 26.3998C34.6668 24.7998 33.6763 23.5808 31.3906 22.5903C30.0191 21.9046 29.181 21.5236 29.181 20.8379C29.181 20.2284 29.8668 19.6189 31.3906 19.6189C32.6858 19.6189 33.6001 19.8474 34.2858 20.1522L34.6668 20.3046L35.2763 17.3332Z" fill="#293688"/>
<path d="M41.8285 17.1812C40.9143 17.1812 40.2285 17.2573 39.8476 18.1716L34.1333 30.8954H38.2476L39.0095 28.6097H43.8857L44.3428 30.8954H48L44.8 17.1812H41.8285ZM40.0762 26.324C40.3047 25.6383 41.6 22.2859 41.6 22.2859C41.6 22.2859 41.9047 21.4478 42.1333 20.9145L42.3619 22.2097C42.3619 22.2097 43.1238 25.6383 43.2762 26.4002H40.0762V26.324Z" fill="#3C58BF"/>
<path d="M42.7428 17.1812C41.8285 17.1812 41.1428 17.2573 40.7619 18.1716L34.1333 30.8954H38.2476L39.0095 28.6097H43.8857L44.3428 30.8954H48L44.8 17.1812H42.7428ZM40.0762 26.324C40.3809 25.5621 41.6 22.2859 41.6 22.2859C41.6 22.2859 41.9047 21.4478 42.1333 20.9145L42.3619 22.2097C42.3619 22.2097 43.1238 25.6383 43.2762 26.4002H40.0762V26.324Z" fill="#293688"/>
<path d="M10.5905 26.7806L10.2096 24.7997C9.52384 22.514 7.31432 19.9997 4.87622 18.7806L8.30479 30.9711H12.4191L18.5905 17.2568H14.4762L10.5905 26.7806Z" fill="#3C58BF"/>
<path d="M10.5905 26.7806L10.2096 24.7997C9.52384 22.514 7.31432 19.9997 4.87622 18.7806L8.30479 30.9711H12.4191L18.5905 17.2568H15.2381L10.5905 26.7806Z" fill="#293688"/>
<path d="M0 17.1812L0.685714 17.3335C5.5619 18.4764 8.91428 21.3716 10.2095 24.8002L8.83809 18.324C8.60952 17.4097 7.92381 17.1812 7.08571 17.1812H0Z" fill="#FFBC00"/>
<path d="M0 17.1812C4.87619 18.324 8.91428 21.2954 10.2095 24.724L8.91428 19.3145C8.68571 18.4002 7.92381 17.8669 7.08571 17.8669L0 17.1812Z" fill="#F7981D"/>
<path d="M0 17.1812C4.87619 18.324 8.91428 21.2954 10.2095 24.724L9.29524 21.7526C9.06667 20.8383 8.7619 19.924 7.69524 19.5431L0 17.1812Z" fill="#ED7C00"/>
<path d="M14.4 26.3241L11.8095 23.7336L10.5905 26.6289L10.2857 24.7241C9.60001 22.4384 7.39049 19.9241 4.95239 18.7051L8.38096 30.8956H12.4952L14.4 26.3241Z" fill="#051244"/>
<path d="M21.4856 30.8958L18.2094 27.5435L17.5999 30.8958H21.4856Z" fill="#051244"/>
<path d="M30.2477 26.1719C30.5525 26.4766 30.7049 26.7052 30.6287 27.01C30.6287 27.9243 29.4096 28.3814 28.343 28.3814C26.8191 28.3814 25.981 28.1528 24.6858 27.6195L24.1525 27.3909L23.6191 30.5147C24.5334 30.8957 26.2096 31.2766 27.962 31.2766C30.4001 31.2766 32.381 30.5909 33.5239 29.3719L30.2477 26.1719Z" fill="#051244"/>
<path d="M34.6667 30.8955H38.2477L39.0096 28.6098H43.8858L44.3429 30.8955H48.0001L46.7048 25.3336L42.1334 20.9146L42.362 22.1336C42.362 22.1336 43.1239 25.5622 43.2763 26.3241H40.0763C40.381 25.5622 41.6001 22.286 41.6001 22.286C41.6001 22.286 41.9048 21.4479 42.1334 20.9146" fill="#051244"/>
</g>
<defs>
<clipPath id="clip0_341_756">
<rect width="48" height="48" fill="white"/>
</clipPath>
</defs>
</svg>
